<?xml version="1.0" encoding="UTF-8"?>
<svg version="1.1" xmlns="http://www.w3.org/2000/svg" width="2172" height="724">
<path d="M0 0 C716.76 0 1433.52 0 2172 0 C2172 238.92 2172 477.84 2172 724 C1455.24 724 738.48 724 0 724 C0 485.08 0 246.16 0 0 Z " fill="#011C48" transform="translate(0,0)"/>
<path d="M0 0 C1.08200684 0.45858398 2.16401367 0.91716797 3.27880859 1.38964844 C5.04732178 2.15583496 5.04732178 2.15583496 6.8515625 2.9375 C9.47418738 4.05251379 12.10042914 5.15890433 14.7265625 6.265625 C15.42373383 6.56051819 16.12090515 6.85541138 16.83920288 7.15924072 C24.62559481 10.44337186 32.4758787 13.56435246 40.32891846 16.68490601 C54.74610123 22.41483881 69.12903475 28.22283916 83.4765625 34.125 C84.27757385 34.45448639 85.07858521 34.78397278 85.90386963 35.1234436 C89.08393593 36.43165284 92.26398236 37.73991036 95.44393921 39.04838562 C103.15666433 42.22041168 110.87793598 45.37129393 118.60351562 48.51187134 C120.00535888 49.08179333 121.40705462 49.65207831 122.80859375 50.2227478 C124.72355612 51.00235711 126.63902871 51.78069754 128.5546875 52.55859375 C129.63137695 52.9961499 130.70806641 53.43370605 131.81738281 53.88452148 C133.68311828 54.62331299 135.57285466 55.30293072 137.4765625 55.9375 C136.0481436 59.14605904 134.29379205 61.42796907 131.9140625 64 C128.09034757 68.21571448 124.4801437 72.56561681 120.89453125 76.984375 C118.28967299 80.16575278 115.63999994 83.30521258 112.9765625 86.4375 C109.62200815 90.38393242 106.30434211 94.3539233 103.0390625 98.375 C99.08315474 103.23673279 95.01576151 107.99338552 90.92260742 112.73925781 C87.83941289 116.32215096 84.82136948 119.94684683 81.8515625 123.625 C81.1704434 124.43936366 80.4893243 125.25372732 79.78756523 126.09276867 C77.45652857 128.88995916 77.45652857 128.88995916 75.47294807 131.81864643 C72.03386315 136.34373469 69.3494379 139.43886035 63.74349594 140.93140221 C59.19546762 141.42935458 54.65912513 141.30058316 50.09326172 141.1862793 C48.34796852 141.18317205 46.60266098 141.18492682 44.8573761 141.19114685 C40.14403183 141.19428941 35.43379805 141.12985454 30.72117376 141.05283332 C25.78727045 140.98383313 20.85328719 140.97758903 15.91897583 140.96455383 C6.58651732 140.93043239 -2.74451525 140.84026066 -12.07634723 140.72970945 C-24.69422236 140.58349057 -37.31249044 140.52433642 -49.93099976 140.46018505 C-69.79621271 140.35690672 -89.65841733 140.13772775 -109.5234375 139.9375 C-109.1934375 195.7075 -108.8634375 251.4775 -108.5234375 308.9375 C-96.1484375 315.8675 -96.1484375 315.8675 -83.5234375 322.9375 C-75.0859375 327.875 -75.0859375 327.875 -71.046875 330.26953125 C-56.84709239 338.67262841 -42.49406977 346.8197627 -28.16174316 354.9942627 C-18.40425746 360.55964343 -8.66541134 366.15512059 1.0390625 371.8125 C2.05049316 372.40168213 3.06192383 372.99086426 4.10400391 373.59790039 C7.61419797 375.64901587 11.09305944 377.68183129 14.4765625 379.9375 C17.79768694 379.55344784 20.47094447 378.00039999 23.37890625 376.41796875 C24.34054687 375.89654297 25.3021875 375.37511719 26.29296875 374.83789062 C27.32292969 374.27263672 28.35289062 373.70738281 29.4140625 373.125 C30.4865625 372.54041016 31.5590625 371.95582031 32.6640625 371.35351562 C40.34459519 367.15053227 47.95480238 362.83380434 55.53881836 358.4597168 C62.12595888 354.67358342 68.78507097 351.03551815 75.4765625 347.4375 C83.77704356 342.97268226 91.99575601 338.3931728 100.16064453 333.68554688 C109.24786208 328.4614694 118.43157893 323.41484195 127.61791992 318.36791992 C128.21571762 318.03934494 128.81351532 317.71076996 129.4294281 317.37223816 C131.12805075 316.43891492 132.82719953 315.50654941 134.52636719 314.57421875 C136.93866229 313.23591799 139.32529423 311.86675262 141.703125 310.46875 C144.4765625 308.9375 144.4765625 308.9375 146.4765625 308.9375 C146.5285379 307.97732468 146.58051331 307.01714935 146.63406372 306.02787781 C147.20167396 296.02754257 148.11502996 286.09852674 149.21875 276.14453125 C149.38971973 274.58105372 149.5604602 273.01755111 149.73098755 271.45402527 C150.08665331 268.20077103 150.44492863 264.94781838 150.80517578 261.69506836 C151.25937634 257.59227185 151.70713564 253.48880279 152.15309334 249.38510323 C153.7472339 234.73659859 155.34177421 220.10026894 157.5201416 205.52461243 C158.5401266 198.68102219 159.24017291 191.82948275 159.8515625 184.9375 C160.92078526 173.57673296 162.3289126 162.29890319 163.9140625 151 C166.52170278 132.36940939 168.46058337 113.69360906 170.27801514 94.97155762 C170.66361322 91.02122202 171.06371458 87.07234681 171.4621582 83.12329102 C171.80433068 79.7284219 172.14098381 76.33302653 172.4765625 72.9375 C179.44389747 74.33383126 185.97716406 76.36202125 192.6640625 78.75 C193.66767822 79.10384766 194.67129395 79.45769531 195.70532227 79.82226562 C198.63101862 80.8552794 201.55412286 81.89531401 204.4765625 82.9375 C206.01298576 83.48317168 207.54944028 84.02875537 209.0859375 84.57421875 C212.2186227 85.68846271 215.34864418 86.80993153 218.4765625 87.9375 C218.0371305 99.68652399 217.43944399 111.40607129 216.4765625 123.125 C216.3935791 124.15753906 216.3105957 125.19007813 216.22509766 126.25390625 C216.14308105 127.21554687 216.06106445 128.1771875 215.9765625 129.16796875 C215.904375 130.01770264 215.8321875 130.86743652 215.7578125 131.74291992 C215.4765625 133.9375 215.4765625 133.9375 214.4765625 136.9375 C214.21090115 139.24074579 213.99009864 141.54925446 213.79296875 143.859375 C213.73326401 144.54718048 213.67355927 145.23498596 213.61204529 145.94363403 C213.41771459 148.1913163 213.22845898 150.4393971 213.0390625 152.6875 C212.90467674 154.24759136 212.76990866 155.80764984 212.63476562 157.36767578 C212.06012335 164.01770082 211.49842496 170.66878966 210.94140625 177.3203125 C210.78698255 179.15108596 210.63205745 180.98181722 210.4765625 182.8125 C210.36260132 184.15441406 210.36260132 184.15441406 210.24633789 185.5234375 C209.60075162 192.92422174 208.79375445 200.30396604 207.9765625 207.6875 C206.98395052 216.68025916 206.15525213 225.66128468 205.5390625 234.6875 C204.63046594 247.93089262 203.31731042 261.12405864 201.97290039 274.32910156 C201.89144775 275.13300323 201.80999512 275.93690491 201.72607422 276.76516724 C201.56027143 278.37223346 201.38916167 279.97876137 201.21264648 281.58468628 C200.75017653 285.85459143 200.40141383 290.09925679 200.20288086 294.39013672 C199.50017355 307.37298045 199.50017355 307.37298045 196.87939453 311.37866211 C194.67157683 313.09617916 192.62361761 314.12313912 190.0390625 315.1875 C188.20787836 316.10980093 186.37854618 317.03578524 184.55078125 317.96484375 C183.56770996 318.43519043 182.58463867 318.90553711 181.57177734 319.39013672 C175.97865564 322.1862564 170.69647684 325.5118374 165.3515625 328.75 C163.04182914 330.12671241 160.726646 331.49406767 158.41015625 332.859375 C157.83368347 333.19943069 157.25721069 333.53948639 156.66326904 333.8898468 C146.31458026 339.98641351 135.89133014 345.95485073 125.4765625 351.9375 C108.85832917 361.49273038 92.29145829 371.13084448 75.76098633 380.8367157 C48.23711054 396.99436017 48.23711054 396.99436017 35.7265625 404.046875 C33.2734185 405.47394434 30.87271131 406.93556408 28.4765625 408.453125 C27.46057983 409.0886731 27.46057983 409.0886731 26.42407227 409.73706055 C25.11967696 410.55664477 23.82270922 411.38821724 22.53491211 412.23364258 C18.12811312 414.99008176 18.12811312 414.99008176 15.14111328 414.74902344 C11.91991377 413.76796542 9.43156707 412.31504412 6.56640625 410.54296875 C6.00640427 410.19968033 5.44640228 409.85639191 4.86943054 409.50270081 C3.0467614 408.38348714 1.23055655 407.25420253 -0.5859375 406.125 C-1.85511467 405.34388616 -3.12481366 404.56361959 -4.39501953 403.78417969 C-6.93352275 402.22591581 -9.47015598 400.66468143 -12.00537109 399.10107422 C-16.61536649 396.26146849 -21.25253694 393.46790012 -25.8984375 390.6875 C-26.69121094 390.2123999 -27.48398437 389.7372998 -28.30078125 389.24780273 C-36.0553279 384.60723069 -43.83752561 380.01354209 -51.62109375 375.421875 C-58.67399392 371.26060418 -65.71785198 367.08408694 -72.7612915 362.90682983 C-78.55113842 359.47306022 -84.34196245 356.04114454 -90.14453125 352.62890625 C-101.06304249 346.20484693 -111.9097785 339.67151969 -122.72387695 333.0737915 C-130.64117211 328.24713216 -138.59456578 323.52569353 -146.73828125 319.08984375 C-147.29420456 318.76099686 -147.85012787 318.43214996 -148.42289734 318.09333801 C-150.65590012 316.82117273 -150.65590012 316.82117273 -153.66267395 315.58183289 C-162.74248428 311.11686819 -162.74248428 311.11686819 -164.81907654 305.32182312 C-165.55712511 300.81725689 -165.58711036 296.29644935 -165.6328125 291.7421875 C-165.69590008 290.06383582 -165.7647018 288.38569015 -165.83892822 286.70779419 C-166.0188285 282.30802344 -166.12379126 277.90964074 -166.21203613 273.50720215 C-166.31398016 269.03321732 -166.4829714 264.56185495 -166.6484375 260.08984375 C-166.83210137 255.06012286 -167.00922289 250.0310593 -167.13372803 244.9994812 C-167.15349701 244.23347595 -167.17326599 243.4674707 -167.19363403 242.67825317 C-167.24532737 240.61573158 -167.29225048 238.55309196 -167.33880615 236.490448 C-167.50882688 233.21865908 -167.9643678 230.16033814 -168.5234375 226.9375 C-168.71321114 224.66071643 -168.87097394 222.38113585 -169.00415039 220.1003418 C-169.0433107 219.44402267 -169.08247101 218.78770355 -169.12281799 218.11149597 C-169.25060882 215.95341898 -169.37357911 213.79510126 -169.49609375 211.63671875 C-169.58420142 210.11659422 -169.67245579 208.59647819 -169.760849 207.07637024 C-169.9454145 203.88819513 -170.12745768 200.69988781 -170.30786133 197.51147461 C-170.53654272 193.47513207 -170.77252441 189.43925583 -171.01064396 185.4034605 C-171.19512373 182.2590105 -171.37499115 179.11430819 -171.55364799 175.96952248 C-171.63863669 174.48467099 -171.72510001 172.99990299 -171.81321907 171.51523399 C-171.87559163 170.45940589 -171.87559163 170.45940589 -171.93922424 169.38224792 C-171.97567834 168.77318194 -172.01213243 168.16411596 -172.0496912 167.53659344 C-172.53480874 158.26996986 -172.5234375 149.27220642 -172.5234375 139.9375 C-195.2934375 139.9375 -218.0634375 139.9375 -241.5234375 139.9375 C-241.5234375 120.7975 -241.5234375 101.6575 -241.5234375 81.9375 C-229.1484375 77.4825 -229.1484375 77.4825 -216.5234375 72.9375 C-210.45592733 70.67415839 -210.45592733 70.67415839 -204.39453125 68.39453125 C-200.0088472 66.73897807 -195.61038729 65.11855201 -191.2109375 63.5 C-190.41727783 63.20794678 -189.62361816 62.91589355 -188.8059082 62.61499023 C-185.56645889 61.42340466 -182.32667895 60.2327194 -179.08691406 59.04199219 C-170.98208756 56.06251599 -162.87901638 53.07962256 -154.796875 50.0390625 C-120.41371696 37.10941116 -85.94422362 24.21974357 -51.02270508 12.80517578 C-46.23529179 11.22337137 -41.62949131 9.35981889 -37 7.37109375 C-32.08931786 5.34612707 -27.1273533 3.47484498 -22.1484375 1.625 C-21.19614258 1.26293457 -20.24384766 0.90086914 -19.26269531 0.52783203 C-18.35100586 0.19251465 -17.43931641 -0.14280273 -16.5 -0.48828125 C-15.68611816 -0.79161377 -14.87223633 -1.09494629 -14.03369141 -1.4074707 C-8.80231009 -2.77255493 -4.90004774 -2.11471271 0 0 Z " fill="#F9FAFC" transform="translate(570.5234375,170.0625)"/>
<path d="M0 0 C0.33 0 0.66 0 1 0 C1.25950529 9.04689147 0.24390725 17.84921208 -0.8125 26.8125 C-1.18210449 30.01795345 -1.54795948 33.22383252 -1.9140625 36.4296875 C-2.0523069 37.63300972 -2.0523069 37.63300972 -2.19334412 38.86064148 C-3.23023015 47.92356241 -4.14833015 56.99798075 -5.0480957 66.07543945 C-5.15984131 67.18363037 -5.27158691 68.29182129 -5.38671875 69.43359375 C-5.48170654 70.39322021 -5.57669434 71.35284668 -5.67456055 72.34155273 C-6.42493756 78.47122667 -7.38864609 80.69741215 -12 85 C-24.54698784 100.39063916 -35.31908702 117.4100344 -46.49902344 133.80078125 C-53.96788961 144.74410371 -61.5193164 155.62911872 -69.09033203 166.50195312 C-75.87830554 176.25391696 -82.61199745 186.04201455 -89.31640625 195.8515625 C-89.88721924 196.68655273 -90.45803223 197.52154297 -91.04614258 198.38183594 C-92.13904576 199.98102312 -93.23138173 201.58059818 -94.32299805 203.18066406 C-97.00977776 207.11370311 -99.71671389 211.03098806 -102.453125 214.9296875 C-106.01379876 220.00614615 -109.51251344 225.12308464 -113 230.25 C-113.6379248 231.18513428 -114.27584961 232.12026855 -114.93310547 233.08374023 C-118.34912024 238.09331043 -121.75097217 243.11182097 -125.1328125 248.14453125 C-125.80183594 249.13614258 -126.47085938 250.12775391 -127.16015625 251.14941406 C-128.44075762 253.04803926 -129.71702062 254.94960009 -130.98828125 256.85449219 C-136.89922876 265.6002153 -136.89922876 265.6002153 -141 269 C-144.4375 269.25 -144.4375 269.25 -148 268 C-150.39677053 265.7097526 -152.09278286 263.67448841 -154 261 C-154.69480469 260.02804687 -155.38960937 259.05609375 -156.10546875 258.0546875 C-157.3291819 256.33652151 -158.55001029 254.61651453 -159.76489258 252.89208984 C-165.04650627 245.43398166 -170.7226312 238.28395555 -176.36181641 231.09521484 C-178.65586888 228.16115251 -180.92324525 225.20707644 -183.1875 222.25 C-186.96483487 217.33025166 -190.7829314 212.4448949 -194.62060547 207.57226562 C-198.36822089 202.81132413 -202.093935 198.03365834 -205.8125 193.25 C-206.4005542 192.49388428 -206.9886084 191.73776855 -207.59448242 190.95874023 C-210.58341115 187.11420679 -213.56822207 183.26656334 -216.546875 179.4140625 C-222.70634694 171.45644142 -228.93421195 163.56756434 -235.30126953 155.77490234 C-239.8059658 150.25716839 -244.24144671 144.68915014 -248.609375 139.0625 C-250.05485972 137.21076794 -251.51861822 135.37283378 -253.015625 133.5625 C-255.47590606 130.52738692 -256.86913656 128.61862715 -257.6875 124.75 C-256.32920393 119.31681571 -250.27185782 116.8485493 -245.71801758 114.09106445 C-244.94482178 113.62788818 -244.17162598 113.16471191 -243.375 112.6875 C-236.9184164 108.83256659 -236.9184164 108.83256659 -230.62109375 104.7265625 C-226.88733626 102.18199898 -223.82540007 100.21721054 -219.4375 99.0625 C-213.88075709 100.57797534 -210.25971071 104.24143172 -206 108 C-204.08798056 109.60970291 -202.17113433 111.21368648 -200.25 112.8125 C-199.24195313 113.65683594 -198.23390625 114.50117188 -197.1953125 115.37109375 C-193.89307251 118.11001045 -190.51297682 120.74346567 -187.125 123.375 C-181.63150849 127.64872829 -176.31727828 132.0947866 -171.05273438 136.64648438 C-165.78387007 141.2009264 -160.4327208 145.64178885 -155 150 C-154.2471875 150.62261719 -153.494375 151.24523437 -152.71875 151.88671875 C-152.0278125 152.43972656 -151.336875 152.99273437 -150.625 153.5625 C-150.03976562 154.03816406 -149.45453125 154.51382813 -148.8515625 155.00390625 C-146.36915816 156.33937694 -144.78297865 156.36412805 -142 156 C-135.89263432 152.36288995 -131.51333394 146.10992501 -127.16015625 140.63671875 C-124.81434036 137.77338109 -122.30759566 135.21548945 -119.65234375 132.64453125 C-117.99154399 130.99158397 -116.46377609 129.27748362 -114.9375 127.5 C-111.40165985 123.3948976 -107.70669323 119.4500009 -104 115.5 C-99.86367042 111.08927546 -95.77364589 106.66130583 -91.828125 102.078125 C-88.79840901 98.63408888 -85.66438383 95.28631523 -82.546875 91.921875 C-78.73366905 87.80361257 -74.96438761 83.64866443 -71.21875 79.46875 C-68.78351777 76.75912541 -66.33004724 74.06667829 -63.875 71.375 C-61.09187108 68.31868051 -58.33020197 65.25042752 -55.625 62.125 C-51.97668285 57.92338357 -48.18620976 53.85731025 -44.40283203 49.77783203 C-41.1701988 46.28602119 -38.00779241 42.74683268 -34.8984375 39.14453125 C-32.86884009 36.85183788 -30.7881372 34.61350851 -28.69921875 32.375 C-24.4837592 27.85619472 -20.37173902 23.32207496 -16.5 18.5 C-12.98272805 14.12280678 -9.30125818 9.9421509 -5.5 5.8125 C-4.97083984 5.235 -4.44167969 4.6575 -3.89648438 4.0625 C-2.61997076 2.68727825 -1.31286038 1.34056685 0 0 Z " fill="#009E55" transform="translate(742,244)"/>
<path d="M0 0 C716.76 0 1433.52 0 2172 0 C2172 238.92 2172 477.84 2172 724 C1455.24 724 738.48 724 0 724 C0 485.08 0 246.16 0 0 Z M2 2 C2 239.6 2 477.2 2 722 C717.44 722 1432.88 722 2170 722 C2170 484.4 2170 246.8 2170 2 C1454.56 2 739.12 2 2 2 Z " fill="#EEEEEC" transform="translate(0,0)"/>
<path d="M0 0 C715.44 0 1430.88 0 2168 0 C2168 237.6 2168 475.2 2168 720 C1452.56 720 737.12 720 0 720 C0 482.4 0 244.8 0 0 Z M2 2 C2 237.95 2 473.9 2 717 C3.78216341 718.78216341 6.40215292 718.12508295 8.81173038 718.12514383 C10.08651296 718.12760233 11.36129554 718.13006084 12.67470789 718.13259384 C14.1117571 718.13026572 15.54880617 718.12784743 16.9858551 718.12534916 C18.50353799 718.12633923 20.02122065 718.12776801 21.53890276 718.12959861 C25.75535998 718.133388 29.97179443 718.13086401 34.18825109 718.12740866 C38.77517006 718.12474247 43.36208556 718.12785219 47.94900417 718.13024551 C56.03451693 718.13365298 64.12002297 718.13329739 72.20553589 718.13056196 C84.30987423 718.12648532 96.41420707 718.12813777 108.51854552 718.1309446 C129.14282707 718.13555654 149.76710616 718.13538882 170.39138794 718.13266373 C191.3058375 718.12991708 212.22028545 718.12932841 233.13473511 718.13140106 C234.45335542 718.13153023 235.77197572 718.13165941 237.13055422 718.13179249 C242.50066376 718.13232343 247.87077329 718.13287272 253.24088283 718.13344277 C268.3807169 718.1350473 283.520551 718.13630313 298.66038513 718.13732314 C299.35427105 718.13737004 300.04815697 718.13741694 300.76306974 718.13746527 C334.9982966 718.13974606 369.23352316 718.138207 403.46875 718.13629532 C404.96911893 718.13621168 406.46948786 718.13612805 407.96985678 718.13604442 C408.71344013 718.13600297 409.45702347 718.13596151 410.22313964 718.1359188 C420.02847981 718.13537231 429.83381998 718.1348357 439.63916016 718.1343255 C440.76335151 718.13426676 440.76335151 718.13426676 441.91025379 718.13420683 C476.60897618 718.13240723 511.30769842 718.1328335 546.00642083 718.13375596 C549.78943434 718.13385576 553.57244785 718.13395126 557.35546136 718.13404724 C568.7573504 718.13433781 580.15923943 718.13463475 591.56112847 718.13494483 C626.33225622 718.13588946 661.10338396 718.13648963 695.87451172 718.13679314 C696.64878421 718.13680001 697.42305671 718.13680687 698.22079201 718.13681395 C748.38043042 718.13725283 798.54006867 718.13615122 848.69970703 718.13394356 C849.90122511 718.13389088 849.90122511 718.13389088 851.12701628 718.13383714 C877.95866927 718.13266072 904.79032226 718.13140468 931.62197524 718.13014051 C1012.76731472 718.12631993 1093.91265362 718.12422641 1238.82588752 718.13025584 C1265.65068934 718.13151901 1292.47549115 718.1327675 1319.30029297 718.13394356 C1320.10107792 718.1339788 1320.90186286 718.13401405 1321.72691402 718.13405036 C1371.85977213 718.13625496 1421.99263013 718.13723786 1472.12548828 718.13679314 C1472.89950676 718.13678638 1473.67352525 718.13677962 1474.47099883 718.13677266 C1509.22267553 718.13646597 1543.97435222 718.13582773 1578.7260289 718.13488263 C1590.12295609 718.13457307 1601.51988328 718.13427874 1612.91681047 718.13398959 C1616.69764409 718.13389359 1620.47847772 718.13379624 1624.25931135 718.13369573 C1658.95982092 718.13277604 1693.6603303 718.13251233 1728.36083984 718.1343255 C1729.10982759 718.13436448 1729.85881534 718.13440345 1730.63049969 718.1344436 C1740.43038087 718.13495543 1750.23026204 718.13549807 1760.03014322 718.13604442 C1760.77314334 718.13608584 1761.51614346 718.13612725 1762.28165873 718.13616992 C1763.780672 718.13625348 1765.27968527 718.13633711 1766.77869854 718.13642082 C1800.96567076 718.13832482 1835.15264264 718.13963392 1869.33961487 718.13732314 C1870.03259157 718.13727645 1870.72556826 718.13722977 1871.43954425 718.13718166 C1886.55425208 718.13615176 1901.66895988 718.13483232 1916.78366766 718.13322786 C1922.81086673 718.13259192 1928.83806581 718.13199149 1934.86526489 718.13140106 C1936.836077 718.13120575 1936.836077 718.13120575 1938.84670349 718.1310065 C1959.71138582 718.12902857 1980.57606653 718.13041321 2001.44074871 718.13317007 C2021.92128695 718.13580537 2042.40182245 718.13490514 2062.88236034 718.13015598 C2074.91284849 718.12747319 2086.94332915 718.12756751 2098.97381696 718.13163758 C2106.94171076 718.13406341 2114.90959867 718.13292814 2122.87749175 718.12877072 C2127.40840145 718.12650965 2131.93929611 718.1258742 2136.47020519 718.12958724 C2140.5704558 718.13291869 2144.67067813 718.13175818 2148.77092689 718.12681253 C2150.25156712 718.12584663 2151.73220959 718.1265975 2153.21284789 718.12917154 C2155.20465297 718.13239839 2157.19646562 718.12898516 2159.18826962 718.12514383 C2160.29517145 718.12511587 2161.40207329 718.1250879 2162.5425176 718.12505908 C2164.94540581 718.27801267 2164.94540581 718.27801267 2166 717 C2166 481.05 2166 245.1 2166 2 C1451.88 2 737.76 2 2 2 Z " fill="#0E1622" transform="translate(2,2)"/>
<path d="M0 0 C10.35267489 9.66249656 17.19872243 21.54797834 17.87109375 35.75390625 C18.12863786 44.81997062 18.08452632 53.50357596 14.59765625 62.0078125 C14.21867187 62.96558594 13.8396875 63.92335938 13.44921875 64.91015625 C8.09095377 76.94302298 -0.61422244 86.11375184 -12.40234375 92.0078125 C-13.11390625 92.39453125 -13.82546875 92.78125 -14.55859375 93.1796875 C-22.32987409 97.30444399 -29.06004328 98.33253222 -37.77734375 98.2578125 C-39.11925781 98.26941406 -39.11925781 98.26941406 -40.48828125 98.28125 C-55.56064309 98.23743499 -68.56069648 92.58286189 -79.40234375 82.0078125 C-91.85913654 67.78000604 -96.39656955 53.62652239 -95.5546875 35.00830078 C-94.47815295 20.87188389 -86.30108726 8.42923489 -76.27734375 -1.1171875 C-53.33303354 -20.50184081 -22.70625059 -18.82957366 0 0 Z " fill="#009D55" transform="translate(1580.40234375,357.9921875)"/>
<path d="M0 0 C9.57 0 19.14 0 29 0 C30.9609999 7.68711961 32.8658562 15.37873033 34.6484375 23.109375 C35.09014282 25.02339111 35.09014282 25.02339111 35.54077148 26.97607422 C36.12302973 29.50274546 36.69976182 32.03048347 37.27368164 34.55908203 C39.55201746 44.46140819 42.22109803 54.22796005 45 64 C45.16873123 63.31619263 45.33746246 62.63238525 45.51130676 61.92785645 C47.10964254 55.45405083 48.71261549 48.98141285 50.32068348 42.5100174 C51.14705806 39.18372859 51.97169254 35.85702928 52.79223633 32.52929688 C53.73769893 28.69529207 54.69093588 24.86324046 55.64453125 21.03125 C55.9352803 19.84760864 56.22602936 18.66396729 56.52558899 17.44445801 C56.80565292 16.32390015 57.08571686 15.20334229 57.37426758 14.04882812 C57.61631424 13.07175903 57.8583609 12.09468994 58.10774231 11.0880127 C59.19508115 7.32484406 60.62461116 3.66770357 62 0 C69.92 0 77.84 0 86 0 C88.67105381 9.99737283 91.28541494 19.99700924 93.6875 30.0625 C93.99046997 31.32646606 93.99046997 31.32646606 94.29956055 32.6159668 C95.49780348 37.68047381 96.57017677 42.75558974 97.54003906 47.86889648 C97.9906 50.1759777 97.9906 50.1759777 99.0625 53 C100.39593208 57.26698267 100.66632757 61.55688817 101 66 C101.66 66 102.32 66 103 66 C103.0417334 65.33863037 103.0834668 64.67726074 103.12646484 63.99584961 C103.65567648 56.96991749 104.90015039 50.38473265 106.625 43.5625 C106.88498779 42.50861084 107.14497559 41.45472168 107.4128418 40.36889648 C107.9715916 38.10960382 108.53412104 35.85124312 109.10009766 33.59375 C109.88504077 30.4590884 110.66173935 27.32252439 111.43395996 24.18470764 C112.22379017 20.97655779 113.01813427 17.76952936 113.8125 14.5625 C114.11430176 13.34183838 114.41610352 12.12117676 114.72705078 10.86352539 C115.00919434 9.73422607 115.29133789 8.60492676 115.58203125 7.44140625 C115.83186768 6.43795166 116.0817041 5.43449707 116.33911133 4.40063477 C117 2 117 2 118 0 C127.57 0 137.14 0 147 0 C146.27568962 4.34586227 145.44613013 8.25671167 144.25 12.4609375 C143.89341309 13.72091553 143.53682617 14.98089355 143.16943359 16.27905273 C142.77964787 17.64437576 142.38983597 19.00969132 142 20.375 C141.59552424 21.80076575 141.1913962 23.22663019 140.78759766 24.65258789 C139.94731593 27.61887539 139.10553668 30.58473179 138.26269531 33.55029297 C136.28634917 40.50881258 134.3314815 47.47337518 132.375 54.4375 C131.81421719 56.43285759 131.25336267 58.42819501 130.69247437 60.42352295 C130.32672855 61.72465818 129.96102572 63.0258055 129.59536743 64.32696533 C128.394277 68.60021552 127.18983682 72.87251246 125.984375 77.14453125 C125.36452722 79.34633837 124.74473247 81.54816042 124.125 83.75 C123.85091309 84.7186499 123.57682617 85.6872998 123.29443359 86.68530273 C121.61719074 92.65351793 120.08224592 98.64230441 118.64404297 104.67285156 C118 107 118 107 117 108 C115.00035018 108.08758003 112.9976389 108.10696576 110.99609375 108.09765625 C109.17368164 108.09282227 109.17368164 108.09282227 107.31445312 108.08789062 C106.03505859 108.07951172 104.75566406 108.07113281 103.4375 108.0625 C102.15423828 108.05798828 100.87097656 108.05347656 99.54882812 108.04882812 C96.36583978 108.03699545 93.18294238 108.02051068 90 108 C89.6757605 106.86123413 89.6757605 106.86123413 89.3449707 105.69946289 C88.33489346 102.15359546 87.3238004 98.60801878 86.3125 95.0625 C86.13014801 94.42263153 85.94779602 93.78276306 85.75991821 93.12350464 C83.61238344 85.58990861 81.4367016 78.06641005 79.1875 70.5625 C77.15758609 63.76771822 75.48344705 56.93481347 74 50 C70.69371536 59.58822546 68.02070817 69.34505327 65.29296875 79.109375 C64.9877832 80.20121094 64.68259766 81.29304688 64.36816406 82.41796875 C63.76090288 84.59212944 63.15473226 86.76659511 62.54980469 88.94140625 C62.26395508 89.96621094 61.97810547 90.99101562 61.68359375 92.046875 C61.30545532 93.40570801 61.30545532 93.40570801 60.91967773 94.79199219 C59.65408608 99.20661239 58.3196307 103.60123101 57 108 C48.09 108 39.18 108 30 108 C24.52709606 89.34744983 19.22620075 70.65385227 14.03881836 51.92016602 C11.98378386 44.50351896 9.90984623 37.09229917 7.8125 29.6875 C7.56234131 28.79708008 7.31218262 27.90666016 7.05444336 26.98925781 C5.88737169 22.88577229 4.60763967 18.95465793 3 15 C2.42458919 12.96758568 1.88367992 10.92513421 1.375 8.875 C1.11460937 7.84117187 0.85421875 6.80734375 0.5859375 5.7421875 C0 3 0 3 0 0 Z " fill="#009D55" transform="translate(826,346)"/>
<path d="M0 0 C65.13848921 0 65.13848921 0 82 15 C86.72280524 20.03062308 90.44061647 25.58969219 93 32 C93.2990625 32.72832031 93.598125 33.45664062 93.90625 34.20703125 C98.89340483 48.86834291 97.38366694 67.0511942 90.609375 80.828125 C89.18795362 83.32683416 87.67063597 85.66194916 86 88 C85.54882812 88.64582031 85.09765625 89.29164063 84.6328125 89.95703125 C75.46875775 101.83923784 59.78858497 105.04530322 46 108 C30.82 108 15.64 108 0 108 C0 72.36 0 36.72 0 0 Z " fill="#009E55" transform="translate(1375,346)"/>
<path d="M0 0 C3.46010922 2.66906452 6.49103089 5.55479362 9.375 8.83203125 C10.365 9.91484375 10.365 9.91484375 11.375 11.01953125 C12.375 12.83203125 12.375 12.83203125 12.2355957 14.77978516 C10.41810103 19.11392989 4.62830757 20.40854548 0.5625 22.20703125 C-0.44876953 22.68269531 -1.46003906 23.15835938 -2.50195312 23.6484375 C-3.47712891 24.08800781 -4.45230469 24.52757812 -5.45703125 24.98046875 C-6.35139893 25.38442871 -7.2457666 25.78838867 -8.16723633 26.20458984 C-10.625 26.83203125 -10.625 26.83203125 -12.8190918 26.09619141 C-14.625 24.83203125 -14.625 24.83203125 -16.6875 22.45703125 C-21.61314235 18.05539341 -28.11792245 15.68692745 -34.75 15.39453125 C-41.73733735 16.18342418 -48.23253446 18.17490192 -53.625 22.83203125 C-59.22670077 31.12566045 -60.98743914 38.19663787 -61 48.08203125 C-61.02449219 49.08105469 -61.04898437 50.08007812 -61.07421875 51.109375 C-61.11102541 60.49507421 -58.4113169 67.1237169 -52.48046875 74.32421875 C-47.09662516 78.69930006 -41.50726693 79.38737749 -34.8125 79.33203125 C-34.02077393 79.32703613 -33.22904785 79.32204102 -32.41333008 79.31689453 C-25.04141183 79.09778453 -19.61063928 77.29449593 -13.98828125 72.41015625 C-10.53042943 68.72442308 -10.09043679 65.96106 -8.625 60.83203125 C-17.865 60.83203125 -27.105 60.83203125 -36.625 60.83203125 C-36.625 53.24203125 -36.625 45.65203125 -36.625 37.83203125 C-17.485 37.83203125 1.655 37.83203125 21.375 37.83203125 C21.375 56.4536858 19.35058332 74.56321062 6.25 88.76953125 C-5.40163581 99.41056599 -19.3079694 103.39042346 -34.75 103.14453125 C-36.27947266 103.14936523 -36.27947266 103.14936523 -37.83984375 103.15429688 C-52.0495394 103.05397168 -64.33709362 98.70825749 -74.85546875 88.765625 C-85.54352803 77.08661983 -91.03749621 63.31572104 -90.9375 47.58203125 C-90.93186035 46.65471191 -90.9262207 45.72739258 -90.92041016 44.77197266 C-90.63668267 28.71187332 -85.05035647 16.09316852 -73.7578125 4.63671875 C-66.63514301 -2.07581622 -57.10407677 -6.8877137 -47.625 -9.16796875 C-46.90183594 -9.34714844 -46.17867187 -9.52632813 -45.43359375 -9.7109375 C-28.99884301 -12.38529889 -13.8417695 -9.45442292 0 0 Z " fill="#009D55" transform="translate(1703.625,353.16796875)"/>
<path d="M0 0 C12.21 0 24.42 0 37 0 C40.21843908 8.0460977 43.18365331 16.06552582 46 24.25 C46.42539063 25.47074219 46.85078125 26.69148438 47.2890625 27.94921875 C49.38562521 34.02667814 51.3449348 40.10089272 53.0625 46.296875 C54.39865315 51.07735621 55.95812807 55.59762521 57.87060547 60.171875 C60.23071312 66.08183762 62.21086545 72.13666251 64.26391602 78.15869141 C65.06123448 80.49628972 65.86332811 82.83220935 66.66601562 85.16796875 C67.18518034 86.68479848 67.70406976 88.20172248 68.22265625 89.71875 C68.57433617 90.74264832 68.57433617 90.74264832 68.93312073 91.78723145 C70.76131813 97.16201751 72.36530107 102.55100356 74 108 C64.43 108 54.86 108 45 108 C41 95 41 95 40 89 C26.14 89 12.28 89 -2 89 C-2.33 91.31 -2.66 93.62 -3 96 C-3.97063483 98.34570085 -4.96898053 100.68020619 -6 103 C-6.33 104.65 -6.66 106.3 -7 108 C-16.57 108 -26.14 108 -36 108 C-35.1936215 103.16172899 -34.08512216 98.84549819 -32.5234375 94.2421875 C-32.27736755 93.50548828 -32.03129761 92.76878906 -31.777771 92.00976562 C-30.98139552 89.62995682 -30.17839435 87.25244752 -29.375 84.875 C-28.82380539 83.23331979 -28.2728623 81.59155512 -27.72216797 79.94970703 C-24.64847492 70.80233918 -21.52984978 61.67191046 -18.31103516 52.57446289 C-15.90862716 45.78203779 -13.62207206 38.95335111 -11.359375 32.11328125 C-11.13612549 31.4385376 -10.91287598 30.76379395 -10.68286133 30.06860352 C-10.2172924 28.65824758 -9.75366814 27.24724857 -9.29174805 25.83569336 C-7.42129914 20.15583204 -5.39524561 14.54260167 -3.3125 8.9375 C-2.219375 5.988125 -1.12625 3.03875 0 0 Z " fill="#009D55" transform="translate(1005,346)"/>
<path d="M0 0 C9.57 0 19.14 0 29 0 C29 13.86 29 27.72 29 42 C41.54 42 54.08 42 67 42 C67 28.14 67 14.28 67 0 C76.57 0 86.14 0 96 0 C96 35.31 96 70.62 96 107 C86.76 107 77.52 107 68 107 C68 92.81 68 78.62 68 64 C55.13 64 42.26 64 29 64 C29 78.52 29 93.04 29 108 C19.43 108 9.86 108 0 108 C0 72.36 0 36.72 0 0 Z " fill="#009E55" transform="translate(1256,346)"/>
<path d="M0 0 C716.76 0 1433.52 0 2172 0 C2172 233.97 2172 467.94 2172 709 C2171.67 709 2171.34 709 2171 709 C2169.58884624 473.33732257 2170 237.6669024 2170 2 C1454.56 2 739.12 2 2 2 C1.67 2.99 1.34 3.98 1 5 C0.67 3.35 0.34 1.7 0 0 Z " fill="#F4F4F5" transform="translate(0,0)"/>
<path d="M0 0 C0 10.23 0 20.46 0 31 C-2.31 29.02 -4.62 27.04 -7 25 C-12.78788202 21.51795427 -17.154563 20.27633949 -23.875 20.375 C-24.66293945 20.384104 -25.45087891 20.39320801 -26.26269531 20.40258789 C-33.04373489 20.67011345 -37.99530177 22.22189244 -43 27 C-50.50120682 35.27338987 -51.56157362 44.98468353 -51.3828125 55.8125 C-50.49320911 63.21980984 -46.70361219 69.27017526 -41 74 C-33.95289677 79.28532742 -26.66116031 80.10458183 -18 79 C-11.63084556 76.6914635 -6.7493255 73.79098625 -2 69 C-1.34 69 -0.68 69 0 69 C0 79.23 0 89.46 0 100 C-9.72656042 104.86328021 -16.20536465 106.34533943 -26.8125 106.3125 C-27.84181641 106.32861328 -28.87113281 106.34472656 -29.93164062 106.36132812 C-41.22402512 106.36847068 -49.72921189 103.34813288 -59 97 C-59.61617187 96.58234375 -60.23234375 96.1646875 -60.8671875 95.734375 C-71.23698735 87.80171705 -78.69584981 74.0314634 -80.68359375 61.28125 C-82.33959992 44.1078527 -80.9666421 28.28588286 -69.85546875 14.30078125 C-67.64441068 11.78085306 -65.36599773 9.37437294 -63 7 C-62.44699219 6.42378906 -61.89398437 5.84757812 -61.32421875 5.25390625 C-44.72906373 -10.60002597 -19.26102956 -9.63051478 0 0 Z " fill="#009E55" transform="translate(1239,350)"/>
<path d="M0 0 C43.39240506 0 43.39240506 0 54.9765625 10.8515625 C61.23599662 17.53717086 64.58895394 24.85422527 65 34 C65.0515625 34.77085937 65.103125 35.54171875 65.15625 36.3359375 C65.57312723 47.34844442 62.08584166 58.52917467 55.25 67.2265625 C47.32068984 75.76336013 37.33089289 79.38130102 26 81 C17.42 81 8.84 81 0 81 C0 54.27 0 27.54 0 0 Z " fill="#061F49" transform="translate(1311,242)"/>
<path d="M0 0 C25.08 0 50.16 0 76 0 C76 8.25 76 16.5 76 25 C68.08 25 60.16 25 52 25 C52 52.39 52 79.78 52 108 C42.43 108 32.86 108 23 108 C23 80.61 23 53.22 23 25 C15.41 25 7.82 25 0 25 C0 16.75 0 8.5 0 0 Z " fill="#009D55" transform="translate(1075,346)"/>
<path d="M0 0 C7.42281886 4.89231243 11.45961396 11.43091201 13.8125 19.9375 C13.874375 20.948125 13.93625 21.95875 14 23 C14.061875 23.79921875 14.12375 24.5984375 14.1875 25.421875 C14.63301436 35.27888026 11.81662086 43.6876188 5.56640625 51.34765625 C0.33815396 56.86274532 -5.89441367 59.04184455 -13.375 59.25 C-14.91794353 59.1951746 -16.46012581 59.11166035 -18 59 C-18.73347656 58.95488281 -19.46695312 58.90976562 -20.22265625 58.86328125 C-27.53556613 57.87017003 -32.43089518 53.59595938 -37 48 C-42.67270159 38.14272707 -43.65507877 27.64034046 -40.875 16.6875 C-38.15544553 8.8224974 -32.56770798 1.93161694 -25.16015625 -1.96875 C-16.32843242 -5.7462794 -8.32099374 -4.52286273 0 0 Z " fill="#011D48" transform="translate(1556,372)"/>
<path d="M0 0 C35.28205128 0 35.28205128 0 42.875 6.4375 C46.92952844 11.3267843 48.41699949 14.49057831 48.375 20.9375 C48.38660156 22.71447266 48.38660156 22.71447266 48.3984375 24.52734375 C47.67060041 30.87094349 44.76600446 34.89901942 40 39 C36.20549593 41.2457269 34.46379252 42 30 42 C30 42.66 30 43.32 30 44 C30.556875 44.061875 31.11375 44.12375 31.6875 44.1875 C37.18143488 46.11780144 40.28139107 51.65821026 43.25 56.375 C43.62697021 56.97280273 44.00394043 57.57060547 44.39233398 58.18652344 C45.60448864 60.11855924 46.8037618 62.05807339 48 64 C48.42490723 64.68674805 48.84981445 65.37349609 49.28759766 66.08105469 C50.55323073 68.13299393 51.80999512 70.19002494 53.0625 72.25 C53.45663086 72.89372559 53.85076172 73.53745117 54.25683594 74.20068359 C57 78.7648469 57 78.7648469 57 81 C53.37 81 49.74 81 46 81 C44.7625 78.710625 44.7625 78.710625 43.5 76.375 C40.97431936 71.74958485 38.41305993 67.14610771 35.8125 62.5625 C35.47992187 61.97194824 35.14734375 61.38139648 34.8046875 60.77294922 C33.40116191 58.31043821 31.97917826 55.9726276 30.26171875 53.71484375 C29 52 29 52 29 50 C23.48296108 46.97058073 23.48296108 46.97058073 10 46 C10 57.55 10 69.1 10 81 C6.7 81 3.4 81 0 81 C0 54.27 0 27.54 0 0 Z " fill="#E9EBEF" transform="translate(1449,242)"/>
<path d="M0 0 C31 0 31 0 41 5 C47.42597492 11.65144773 48.43115209 15.13332605 48.3359375 24.4453125 C47.76148174 30.52385604 45.43448229 33.80233505 40.9921875 37.8125 C35.73842593 42 35.73842593 42 32 42 C32.73863281 42.69609375 33.47726562 43.3921875 34.23828125 44.109375 C39.02002672 49.11431368 42.40095939 55.11954766 46 61 C46.45729492 61.74620605 46.91458984 62.49241211 47.38574219 63.26123047 C48.78875574 65.56369834 50.17838782 67.87362713 51.5625 70.1875 C52.00424561 70.91807617 52.44599121 71.64865234 52.90112305 72.40136719 C56 77.6489385 56 77.6489385 56 81 C52.7 81 49.4 81 46 81 C45.28714844 79.67226563 44.57429688 78.34453125 43.83984375 76.9765625 C35.17650275 58.31082827 35.17650275 58.31082827 20 46 C16.37 45.67 12.74 45.34 9 45 C9 56.88 9 68.76 9 81 C6.03 81 3.06 81 0 81 C0 54.27 0 27.54 0 0 Z " fill="#EAECF0" transform="translate(1169,242)"/>
<path d="M0 0 C0.875 2.125 0.875 2.125 1 4 C5.27647396 4.50910404 6.64998226 4.27301384 10.125 1.5625 C11.07375 0.716875 12.0225 -0.12875 13 -1 C17.31122957 -2.86819948 22.68142798 -2.74723776 27.12109375 -1.31640625 C33.03477281 1.37772731 36.5344732 4.85958543 39.3125 10.8125 C41.02564584 18.75526706 40.214917 24.97513833 36 32 C32.40663546 36.22220333 29.51977615 38.75220592 23.94140625 39.30078125 C22.82636719 39.30464844 21.71132812 39.30851563 20.5625 39.3125 C19.45003906 39.32925781 18.33757812 39.34601562 17.19140625 39.36328125 C13.68244498 38.96385237 11.94759548 37.84966562 9 36 C5.26906622 36.22247835 5.26906622 36.22247835 2 37 C1.67 36.34 1.34 35.68 1 35 C0.67 35.66 0.34 36.32 0 37 C-3.58633913 39.46670155 -7.12170719 39.33255197 -11.375 39.375 C-12.66148437 39.40335938 -13.94796875 39.43171875 -15.2734375 39.4609375 C-20.34464277 38.8336815 -23.40702536 36.93729933 -26.64453125 33 C-27.02996094 32.34 -27.41539062 31.68 -27.8125 31 C-28.21082031 30.34 -28.60914063 29.68 -29.01953125 29 C-31.78669668 23.3554235 -31.81341541 16.96956395 -30.0625 11 C-27.91028732 5.77467594 -23.55990464 2.16901518 -19 -1 C-13.08891937 -3.08896442 -5.57351352 -2.78675676 0 0 Z " fill="#ECEEF2" transform="translate(1031,482)"/>
<path d="M0 0 C2.97 0 5.94 0 9 0 C13.73802493 11.04913763 18.00329546 22.27884274 22.3125 33.5 C23.76534345 37.28186126 25.21973955 41.06311893 26.67578125 44.84375 C27.031492 45.76865234 27.38720276 46.69355469 27.75369263 47.64648438 C29.56505658 52.34113402 31.40331971 57.02277682 33.29052734 61.6875 C33.65832809 62.59713501 34.02612885 63.50677002 34.40507507 64.44396973 C35.10247089 66.16235968 35.8037459 67.87918237 36.50959778 69.59411621 C38.04696053 73.37786087 39.41334204 76.9286858 40 81 C36.7 81 33.4 81 30 81 C28.66147204 77.37689672 27.33006282 73.75121856 26 70.125 C25.6184375 69.09246094 25.236875 68.05992187 24.84375 66.99609375 C24.30234375 65.51689453 24.30234375 65.51689453 23.75 64.0078125 C23.41484375 63.09660645 23.0796875 62.18540039 22.734375 61.24658203 C22 59 22 59 22 57 C10.45 57 -1.1 57 -13 57 C-13.33 58.65 -13.66 60.3 -14 62 C-14.51001068 63.55934488 -15.05398824 65.1079322 -15.62890625 66.64453125 C-15.94150391 67.48564453 -16.25410156 68.32675781 -16.57617188 69.19335938 C-16.90166016 70.05767578 -17.22714844 70.92199219 -17.5625 71.8125 C-17.89185547 72.69615234 -18.22121094 73.57980469 -18.56054688 74.49023438 C-19.37033764 76.66141251 -20.18471678 78.83087833 -21 81 C-24.3 81 -27.6 81 -31 81 C-29.12302449 74.52063633 -27.04647625 68.23613863 -24.55859375 61.96875 C-24.23440964 61.14227463 -23.91022552 60.31579926 -23.57621765 59.46427917 C-22.53357106 56.80809098 -21.4855789 54.15404877 -20.4375 51.5 C-19.35463836 48.74571699 -18.27315027 45.99089753 -17.1918335 43.23600769 C-16.47469648 41.40902494 -15.75712875 39.58221119 -15.03912354 37.75556946 C-11.61147033 29.02962643 -8.24987587 20.27923329 -4.91967773 11.515625 C-4.55688721 10.56558594 -4.19409668 9.61554688 -3.8203125 8.63671875 C-3.51367676 7.82936279 -3.20704102 7.02200684 -2.89111328 6.19018555 C-2.03285453 4.08075012 -1.01846216 2.03692433 0 0 Z " fill="#EAECF0" transform="translate(1259,242)"/>
<path d="M0 0 C22.06073753 0 22.06073753 0 30 6 C38.18673425 15.31295166 38.70141337 25.10144731 38.17041016 36.96923828 C37.61807057 43.55141686 35.08378185 48.33779319 30.375 52.875 C20.48020731 60.54074598 13.29827503 60 0 60 C0 40.2 0 20.4 0 0 Z " fill="#011E48" transform="translate(1404,370)"/>
<path d="M0 0 C43.39240506 0 43.39240506 0 54.9765625 10.8515625 C61.23599662 17.53717086 64.58895394 24.85422527 65 34 C65.0515625 34.77085937 65.103125 35.54171875 65.15625 36.3359375 C65.57312723 47.34844442 62.08584166 58.52917467 55.25 67.2265625 C47.32068984 75.76336013 37.33089289 79.38130102 26 81 C17.42 81 8.84 81 0 81 C0 54.27 0 27.54 0 0 Z M9 7 C9 28.78 9 50.56 9 73 C29.51889694 73.55196544 29.51889694 73.55196544 46.28125 64.76953125 C52.90956086 57.94538394 55.3827317 48.97977338 55.3125 39.6875 C55.30831055 38.9349292 55.30412109 38.1823584 55.29980469 37.40698242 C55.13242434 29.17062275 53.32351249 22.47454222 48 16 C36.3368528 5.58558377 24.73170255 7 9 7 Z " fill="#EBEEF1" transform="translate(1311,242)"/>
<path d="M0 0 C0.33 -0.33 0.66 -0.66 1 -1 C3.14558827 -1.08775605 5.29404421 -1.10695219 7.44140625 -1.09765625 C8.74658203 -1.09443359 10.05175781 -1.09121094 11.39648438 -1.08789062 C12.7851569 -1.07953401 14.17382877 -1.07106905 15.5625 -1.0625 C16.95507656 -1.05748666 18.34765481 -1.05292347 19.74023438 -1.04882812 C23.1601987 -1.03699434 26.58007844 -1.0205088 30 -1 C30 0.98 30 2.96 30 5 C26.37 5 22.74 5 19 5 C19 16.22 19 27.44 19 39 C16.69 39 14.38 39 12 39 C12 28.11 12 17.22 12 6 C8.7 6 5.4 6 2 6 C2 6.33 2 6.66 2 7 C4.97 7 7.94 7 11 7 C11.05785647 10.95827235 11.09354717 14.9164367 11.125 18.875 C11.14175781 20.00292969 11.15851563 21.13085938 11.17578125 22.29296875 C11.18544922 23.90751953 11.18544922 23.90751953 11.1953125 25.5546875 C11.21102295 27.04718018 11.21102295 27.04718018 11.22705078 28.56982422 C11 31 11 31 9 33 C5.375 33.125 5.375 33.125 2 33 C1.87625 34.175625 1.87625 34.175625 1.75 35.375 C1 38 1 38 -0.5625 39.1640625 C-6.72339696 41.27693421 -15.84102133 40.39140094 -21.72265625 37.80078125 C-25.90859589 34.81976629 -28.03796867 31.79288004 -30 27 C-30.86766007 20.36240048 -31.34551634 13.230581 -27.8125 7.3125 C-20.60091982 -2.02609119 -10.78285366 -4.31314146 0 0 Z " fill="#07214B" transform="translate(1489,482)"/>
<path d="M0 0 C13.53 0 27.06 0 41 0 C41 2.31 41 4.62 41 7 C30.44 7 19.88 7 9 7 C9 16.57 9 26.14 9 36 C18.57 36 28.14 36 38 36 C38 38.31 38 40.62 38 43 C28.43 43 18.86 43 9 43 C9 52.9 9 62.8 9 73 C20.22 73 31.44 73 43 73 C43 75.64 43 78.28 43 81 C28.81 81 14.62 81 0 81 C0 54.27 0 27.54 0 0 Z " fill="#E9EBEF" transform="translate(1391,242)"/>
<path d="M0 0 C5.1994492 4.47590125 7.98302479 7.92637049 8.72265625 14.87890625 C8.85546114 22.52690572 8.85541769 28.53899874 3.3515625 34.390625 C-0.60786503 38.24852874 -4.42729387 40.34333252 -10.04296875 40.42578125 C-15.60680059 40.08377659 -19.35967426 39.18069484 -23.6484375 35.390625 C-29.49266692 28.41884045 -30.44100386 22.43047609 -29.6484375 13.390625 C-28.08358401 7.38039151 -24.59173929 4.06287452 -19.6484375 0.51953125 C-13.87879543 -2.73716125 -5.7110431 -3.47042737 0 0 Z " fill="#E5E8ED" transform="translate(1394.6484375,481.609375)"/>
<path d="M0 0 C4.20456211 2.77118866 6.37391529 5.20732927 8 10 C8.89487111 18.70354093 7.89690384 25.34426168 3.25 32.8125 C-1.38200059 37.31583391 -5.72076145 38.20958522 -12 38.5 C-16.85205906 38.36656838 -19.90972531 37.67467552 -23.6015625 34.49609375 C-28.86513364 28.86495479 -30.34223682 23.91068052 -30.20703125 16.4375 C-29.694991 10.40895066 -28.19962814 5.66870216 -23.625 1.5625 C-15.90031778 -4.25923336 -8.51377363 -4.49784267 0 0 Z " fill="#EBEDF1" transform="translate(1564,483)"/>
<path d="M0 0 C0.875 2.125 0.875 2.125 1 4 C3.475 4.495 3.475 4.495 6 5 C5.7834375 5.53367187 5.566875 6.06734375 5.34375 6.6171875 C2.71541235 13.65042437 1.38318015 20.73126689 4.375 27.875 C4.91125 28.90625 5.4475 29.9375 6 31 C6.5878125 32.2065625 6.5878125 32.2065625 7.1875 33.4375 C7.455625 33.953125 7.72375 34.46875 8 35 C5 37 5 37 2 37 C1.67 36.34 1.34 35.68 1 35 C0.67 35.66 0.34 36.32 0 37 C-3.58633913 39.46670155 -7.12170719 39.33255197 -11.375 39.375 C-12.66148437 39.40335938 -13.94796875 39.43171875 -15.2734375 39.4609375 C-20.34464277 38.8336815 -23.40702536 36.93729933 -26.64453125 33 C-27.02996094 32.34 -27.41539062 31.68 -27.8125 31 C-28.21082031 30.34 -28.60914063 29.68 -29.01953125 29 C-31.78669668 23.3554235 -31.81341541 16.96956395 -30.0625 11 C-27.91028732 5.77467594 -23.55990464 2.16901518 -19 -1 C-13.08891937 -3.08896442 -5.57351352 -2.78675676 0 0 Z " fill="#06204A" transform="translate(1031,482)"/>
<path d="M0 0 C18.15 0 36.3 0 55 0 C55 2.31 55 4.62 55 7 C47.41 7 39.82 7 32 7 C32 31.09 32 55.18 32 80 C29.36 80 26.72 80 24 80 C24 55.91 24 31.82 24 7 C16.08 7 8.16 7 0 7 C0 4.69 0 2.38 0 0 Z " fill="#F5F6F8" transform="translate(1101,242)"/>
<path d="M0 0 C2.97 0 5.94 0 9 0 C9.43699219 1.07314453 9.43699219 1.07314453 9.8828125 2.16796875 C12.68309946 8.97495559 15.67148192 15.65232388 18.86328125 22.28515625 C20 25 20 25 20 28 C20.66 28 21.32 28 22 28 C22.09539062 27.34902344 22.19078125 26.69804687 22.2890625 26.02734375 C23.23211163 22.01161258 24.77898714 18.35797686 26.375 14.5625 C26.67921875 13.82451172 26.9834375 13.08652344 27.296875 12.32617188 C29.04273498 8.12939308 30.91206443 4.04137222 33 0 C35.64 0 38.28 0 41 0 C41 13.2 41 26.4 41 40 C38.69 40 36.38 40 34 40 C33.67 32.41 33.34 24.82 33 17 C31.535625 20.238125 30.07125 23.47625 28.5625 26.8125 C28.10174072 27.82932861 27.64098145 28.84615723 27.16625977 29.89379883 C26.80330811 30.69841553 26.44035645 31.50303223 26.06640625 32.33203125 C25.69459229 33.15421143 25.32277832 33.9763916 24.93969727 34.82348633 C23.91603716 37.10903297 23.91603716 37.10903297 23 40 C20.7265625 39.9765625 20.7265625 39.9765625 18 39 C16.52488726 36.41704749 15.43248984 34.12153611 14.375 31.375 C14.08882812 30.67503906 13.80265625 29.97507812 13.5078125 29.25390625 C12.96420607 27.92207049 12.42849152 26.5869623 11.90380859 25.24755859 C10.65546686 22.14322743 9.31802531 19.07539239 8 16 C7.67 23.92 7.34 31.84 7 40 C4.69 40 2.38 40 0 40 C0 26.8 0 13.6 0 0 Z " fill="#E6E9EE" transform="translate(1181,481)"/>
<path d="M0 0 C18.94333765 -0.44398448 18.94333765 -0.44398448 25 3 C29.02923002 7.02923002 29.84137636 9.85858092 30.25 15.375 C29.89177832 20.56921436 28.41240037 23.62577261 24.6875 27.25 C19.12308285 30.8733414 14.04934343 31.27483505 7.625 31.125 C3.850625 31.063125 3.850625 31.063125 0 31 C0 20.77 0 10.54 0 0 Z " fill="#0B244D" transform="translate(1458,249)"/>
<path d="M0 0 C3.196875 -0.061875 6.39375 -0.12375 9.6875 -0.1875 C11.18543091 -0.22846802 11.18543091 -0.22846802 12.71362305 -0.27026367 C19.11392078 -0.33023623 22.40639775 0.69457578 27.25 5 C30.13961804 8.30242061 30.3405656 11.5729116 30.28515625 15.87109375 C29.68337298 20.36385923 27.34438899 23.78164747 24 26.8125 C20.42011176 28.93805864 17.90512242 30.25578746 13.671875 30.1953125 C12.9509668 30.19031738 12.23005859 30.18532227 11.48730469 30.18017578 C10.58399414 30.16196777 9.68068359 30.14375977 8.75 30.125 C4.41875 30.063125 4.41875 30.063125 0 30 C0 20.1 0 10.2 0 0 Z " fill="#09204A" transform="translate(1178,250)"/>
<path d="M0 0 C8 0 8 0 10.03808594 1.74072266 C10.75399902 2.94027588 10.75399902 2.94027588 11.484375 4.1640625 C12.02707031 5.03933594 12.56976562 5.91460937 13.12890625 6.81640625 C13.66386719 7.74324219 14.19882813 8.67007812 14.75 9.625 C15.30042969 10.52863281 15.85085938 11.43226563 16.41796875 12.36328125 C17.45190868 14.06171974 18.47391194 15.76752872 19.47949219 17.48291016 C21.22882139 20.37879713 23.12331602 23.18497403 25 26 C25.33 17.42 25.66 8.84 26 0 C28.31 0 30.62 0 33 0 C33 13.2 33 26.4 33 40 C25 40 25 40 23.28491211 38.70581055 C22.95241455 38.10551025 22.61991699 37.50520996 22.27734375 36.88671875 C21.88353516 36.21447266 21.48972656 35.54222656 21.08398438 34.84960938 C20.70564453 34.13611328 20.32730469 33.42261719 19.9375 32.6875 C19.15609221 31.31575378 18.37351276 29.94467441 17.58984375 28.57421875 C16.73519531 27.06472656 15.88054687 25.55523437 15 24 C12.69 20.37 10.38 16.74 8 13 C7.67 21.91 7.34 30.82 7 40 C4.69 40 2.38 40 0 40 C0 26.8 0 13.6 0 0 Z " fill="#EAECF0" transform="translate(1577,481)"/>
<path d="M0 0 C17 0 17 0 23 4 C24.84617176 7.69234352 24.48712159 11.97017593 24 16 C22 19.125 22 19.125 20 21 C21.41427454 24.90879898 23.27615775 28.15968794 25.5625 31.625 C27.43749947 34.47063329 28.9209413 36.76282389 30 40 C24.86407588 40.59406062 24.86407588 40.59406062 22 40 C20.00689374 37.61822248 18.7958609 35.8311303 17.4375 33.125 C16.76949896 31.82503652 16.08099734 30.53537554 15.37109375 29.2578125 C15.08161865 28.6817627 14.79214355 28.10571289 14.49389648 27.51220703 C12.48792064 25.23414884 12.48792064 25.23414884 6 24 C6 28.95 6 33.9 6 39 C4.02 39 2.04 39 0 39 C0 26.13 0 13.26 0 0 Z " fill="#F3F5F7" transform="translate(1257,481)"/>
<path d="M0 0 C16 0 16 0 20.4375 1.375 C23.70645514 4.72368576 24.00297993 7.0101833 24.14453125 11.59375 C23.85805456 16.36319983 22.34252729 18.77684868 19 22 C19.38671875 22.58007812 19.7734375 23.16015625 20.171875 23.7578125 C21.24919939 25.37379908 22.32463889 26.99104345 23.3984375 28.609375 C24.34722847 30.02561908 25.30670056 31.43495716 26.2890625 32.828125 C29 36.6897482 29 36.6897482 29 40 C26.36 40 23.72 40 21 40 C20.61328125 39.25234375 20.2265625 38.5046875 19.828125 37.734375 C19.30734375 36.74953125 18.7865625 35.7646875 18.25 34.75 C17.73953125 33.77546875 17.2290625 32.8009375 16.703125 31.796875 C15.00744339 29.01222355 13.53387936 27.04587297 11 25 C9.35 24.67 7.7 24.34 6 24 C6 28.95 6 33.9 6 39 C4.02 39 2.04 39 0 39 C0 26.13 0 13.26 0 0 Z " fill="#F4F5F7" transform="translate(1337,481)"/>
<path d="M0 0 C0.66 0 1.32 0 2 0 C2.18062988 0.69335449 2.36125977 1.38670898 2.54736328 2.10107422 C7.33114584 20.45645365 7.33114584 20.45645365 13.22119141 38.47802734 C14.58798262 42.33483299 15 44.78857553 15 49 C5.76 49 -3.48 49 -13 49 C-12.28379745 42.55417706 -11.46005333 37.69954697 -9.3125 31.8125 C-5.65395377 21.35918914 -2.81303837 10.70643006 0 0 Z " fill="#01214A" transform="translate(1023,365)"/>
<path d="M0 0 C8 0 8 0 10.03808594 1.83251953 C10.75399902 3.09491455 10.75399902 3.09491455 11.484375 4.3828125 C12.02707031 5.30320312 12.56976562 6.22359375 13.12890625 7.171875 C13.66386719 8.14640625 14.19882813 9.1209375 14.75 10.125 C15.84855388 12.02367157 16.94750225 13.92211495 18.046875 15.8203125 C18.51963867 16.66867676 18.99240234 17.51704102 19.47949219 18.39111328 C21.19603607 21.33635862 23.10905046 24.16357569 25 27 C25.33 18.09 25.66 9.18 26 0 C27.98 0 29.96 0 32 0 C32 12.87 32 25.74 32 39 C24 39 24 39 21.85424805 37.05981445 C21.06594604 35.72503052 21.06594604 35.72503052 20.26171875 34.36328125 C19.37323242 32.90825195 19.37323242 32.90825195 18.46679688 31.42382812 C17.87962891 30.39708984 17.29246094 29.37035156 16.6875 28.3125 C15.77774414 26.80139648 15.77774414 26.80139648 14.84960938 25.25976562 C13.2064006 22.52108433 11.60094143 19.76350813 10 17 C9.01 15.35 8.02 13.7 7 12 C6.67 20.91 6.34 29.82 6 39 C4.02 39 2.04 39 0 39 C0 26.13 0 13.26 0 0 Z " fill="#F5F6F8" transform="translate(1076,481)"/>
<path d="M0 0 C18.375 0 18.375 0 23.8125 4.5 C26.57107956 7.98452155 26.35901115 11.76366844 26 16 C23.89707101 19.90543955 21.79959168 22.70552827 18 25 C14.28911458 25.38871006 10.74349839 25.13369637 7 25 C7 29.95 7 34.9 7 40 C4.69 40 2.38 40 0 40 C0 26.8 0 13.6 0 0 Z " fill="#E9EBF0" transform="translate(1306,481)"/>
<path d="M0 0 C2.97 0 5.94 0 9 0 C10.40832327 3.27028914 11.77288783 6.55690528 13.1171875 9.85400391 C13.76013761 11.41692744 14.41245565 12.97600704 15.0703125 14.53271484 C16.23674072 17.30446966 17.3700858 20.08818465 18.5 22.875 C18.88671875 23.77822998 19.2734375 24.68145996 19.671875 25.61206055 C22.28775804 32.18410067 22.28775804 32.18410067 20.71875 36.6328125 C20.1515625 37.41398437 19.584375 38.19515625 19 39 C17.35 39 15.7 39 14 39 C13.7326001 38.2479126 13.4652002 37.4958252 13.18969727 36.72094727 C11.98355939 33.33374719 10.77309023 29.94811121 9.5625 26.5625 C9.14162109 25.37849609 8.72074219 24.19449219 8.28710938 22.97460938 C7.88427734 21.84990234 7.48144531 20.72519531 7.06640625 19.56640625 C6.5086853 18.00321655 6.5086853 18.00321655 5.93969727 16.40844727 C5.21900445 14.08509698 5.21900445 14.08509698 4 13 C0.04 23.89 -3.92 34.78 -8 46 C-8.66 45.34 -9.32 44.68 -10 44 C-10 42.68 -10 41.36 -10 40 C-11.65 40 -13.3 40 -15 40 C-12.77764594 32.02039897 -9.93904014 24.34074948 -6.9375 16.625 C-6.49083984 15.46355469 -6.04417969 14.30210937 -5.58398438 13.10546875 C-3.85555545 8.63583939 -2.14487639 4.28975279 0 0 Z " fill="#EFF1F4" transform="translate(1259,242)"/>
<path d="M0 0 C2.31 0 4.62 0 7 0 C7.01458252 0.85754883 7.02916504 1.71509766 7.04418945 2.59863281 C7.10535478 5.78960413 7.17952762 8.97993587 7.26245117 12.17041016 C7.29564193 13.54952667 7.32369217 14.92877711 7.34643555 16.30810547 C7.38008642 18.29422306 7.43394729 20.27996559 7.48828125 22.265625 C7.51446533 23.45961914 7.54064941 24.65361328 7.56762695 25.88378906 C8.02958246 29.21320749 8.6273116 30.65586381 11 33 C13.50880616 33.48261667 13.50880616 33.48261667 16.1875 33.25 C17.53908203 33.19585938 17.53908203 33.19585938 18.91796875 33.140625 C19.60503906 33.09421875 20.29210938 33.0478125 21 33 C23.4242477 26.28897282 23.43957934 19.64325157 23.625 12.5625 C23.66367188 11.35400391 23.70234375 10.14550781 23.7421875 8.90039062 C23.83599458 5.93374183 23.92169246 2.96709164 24 0 C26.31 0 28.62 0 31 0 C31.05826088 4.3749437 31.09368457 8.74978698 31.125 13.125 C31.14175781 14.3625 31.15851563 15.6 31.17578125 16.875 C31.18222656 18.07382812 31.18867187 19.27265625 31.1953125 20.5078125 C31.20578613 21.60754395 31.21625977 22.70727539 31.22705078 23.84033203 C30.80509037 29.71238758 28.95761041 33.68260683 25 38 C20.12251509 41.2516566 14.70233406 40.58144192 9 40 C5.18012747 38.56930973 3.26722616 36.40083924 1 33 C-0.05901189 29.10860126 -0.11600724 25.40558591 -0.09765625 21.38671875 C-0.09443359 20.13955078 -0.09121094 18.89238281 -0.08789062 17.60742188 C-0.07532227 15.66706055 -0.07532227 15.66706055 -0.0625 13.6875 C-0.05798828 12.37458984 -0.05347656 11.06167969 -0.04882812 9.70898438 C-0.03705949 6.4726099 -0.0206176 3.23632822 0 0 Z " fill="#E6E9EE" transform="translate(1144,481)"/>
<path d="M0 0 C7.26 0 14.52 0 22 0 C22 1.98 22 3.96 22 6 C17.05 6 12.1 6 7 6 C7 9.3 7 12.6 7 16 C11.62 16 16.24 16 21 16 C21 18.31 21 20.62 21 23 C16.38 23 11.76 23 7 23 C7 26.3 7 29.6 7 33 C12.28 33 17.56 33 23 33 C23 35.31 23 37.62 23 40 C15.41 40 7.82 40 0 40 C0 26.8 0 13.6 0 0 Z " fill="#E7EAEF" transform="translate(1229,481)"/>
<path d="M0 0 C3.18865079 1.73098186 4.65845732 3.6461433 6 7 C6.9671218 13.67969714 7.12585739 19.41679919 3 25 C-1.35986829 27.87354956 -4.81800645 28.74028479 -10 28 C-14.15602312 25.25545643 -16.85743266 22.91303956 -18 18 C-18.48100568 12.0355296 -17.88489852 8.25463658 -15 3 C-10.58462362 -1.13333692 -5.74087235 -1.10178358 0 0 Z " fill="#0B234C" transform="translate(1559,487)"/>
<path d="M0 0 C3.18124805 1.75181537 4.64955806 3.64303097 6 7 C6.87857413 12.57583269 7.31308914 18.67416999 4.3125 23.6875 C0.80422975 27.19577025 -1.61462074 27.85156651 -6.5 28.375 C-10.7289246 27.92190094 -12.1304444 27.10868523 -15 24 C-18.16273132 18.83420551 -18.48385745 14.59116506 -17.68359375 8.6015625 C-16.7931673 5.21285384 -15.71189166 3.21036702 -13.0078125 0.9765625 C-8.72810038 -1.10500955 -4.56953866 -1.08314991 0 0 Z " fill="#0B234C" transform="translate(1390,487)"/>
<path d="M0 0 C3.48133993 1.36226345 4.69286083 2.55517776 6.8125 5.625 C8.75114998 11.13484731 8.85364295 16.3580822 6.8125 21.875 C4.78414563 25.37216271 3.76354662 26.57821572 0 28 C-5.14061789 28.65277688 -6.9562523 28.65717448 -11.375 25.875 C-15.0180214 21.88502418 -15.78748654 18.91262113 -16.375 13.625 C-15.91362945 9.16508471 -14.53995454 5.69525159 -12 2 C-7.94633625 -0.7024425 -4.75468449 -0.52736817 0 0 Z " fill="#08214C" transform="translate(1056,487)"/>
<path d="M0 0 C0 2.31 0 4.62 0 7 C-0.55429688 6.83886719 -1.10859375 6.67773438 -1.6796875 6.51171875 C-4.21742308 5.95204979 -6.52778553 5.8318822 -9.125 5.8125 C-9.99382812 5.79832031 -10.86265625 5.78414063 -11.7578125 5.76953125 C-14.20329726 5.78256395 -14.20329726 5.78256395 -16 8 C-16.12152641 10.00480578 -16.12152641 10.00480578 -15 12 C-12.37750862 13.88200336 -12.37750862 13.88200336 -9.1875 15.5 C-5.23006681 17.62091425 -1.83647861 19.46448401 1 23 C1.98608382 26.74031793 1.85537245 30.47863645 -0.05859375 33.8828125 C-1.81997788 36.04664939 -3.49096234 37.74548117 -6 39 C-8.28919778 39.12335276 -10.58251218 39.17558478 -12.875 39.1875 C-14.10992188 39.20167969 -15.34484375 39.21585938 -16.6171875 39.23046875 C-19.74086712 39.01765455 -21.40061596 38.65237226 -24 37 C-24 34.36 -24 31.72 -24 29 C-19.25 30.875 -19.25 30.875 -17 32 C-15.08499697 32.15898854 -15.08499697 32.15898854 -13 32.125 C-12.29875 32.12757813 -11.5975 32.13015625 -10.875 32.1328125 C-8.90846225 32.11377236 -8.90846225 32.11377236 -7 31 C-6.32845316 28.71658257 -6.32845316 28.71658257 -7 26 C-9.45007017 23.96436956 -12.21441068 22.52806609 -15 21 C-20.74468085 17.38297872 -20.74468085 17.38297872 -23 14 C-23.54553487 10.93351979 -23.52857517 8.06897215 -23 5 C-17.32000833 -2.62741739 -8.38150278 -4.19075139 0 0 Z " fill="#EBEEF2" transform="translate(1138,482)"/>
<path d="M0 0 C2.69508432 2.69508432 3.56235156 5.82553885 4.8203125 9.34375 C5.08383514 10.06864624 5.34735779 10.79354248 5.61886597 11.54040527 C6.1745332 13.07268038 6.72745397 14.60595385 7.27783203 16.14013672 C8.12250564 18.49305173 8.97655086 20.84240173 9.83203125 23.19140625 C10.37034985 24.67948569 10.90812869 26.16776053 11.4453125 27.65625 C11.70152374 28.36148804 11.95773499 29.06672607 12.22171021 29.79333496 C14 34.76840994 14 34.76840994 14 37 C5.09 37 -3.82 37 -13 37 C-11.7394147 31.32736616 -10.63508797 26.56380219 -8.65234375 21.25 C-8.21212891 20.06535156 -7.77191406 18.88070313 -7.31835938 17.66015625 C-6.86267578 16.45230469 -6.40699219 15.24445313 -5.9375 14 C-5.47282903 12.74887544 -5.00863287 11.49757443 -4.54492188 10.24609375 C-1.14220667 1.14220667 -1.14220667 1.14220667 0 0 Z " fill="#0A2149" transform="translate(1263,254)"/>
<path d="M0 0 C0 2.31 0 4.62 0 7 C-0.7115625 6.84144531 -1.423125 6.68289063 -2.15625 6.51953125 C-8.0362931 5.44529261 -13.88659561 4.73195737 -19.125 7.875 C-22.22828632 11.39205783 -22.18701495 13.67784993 -22.25 18.3125 C-22.27578125 19.44300781 -22.3015625 20.57351563 -22.328125 21.73828125 C-21.96867173 25.31141795 -21.10780338 27.13090155 -19 30 C-15.48590892 32.73318195 -11.25416715 32.41042058 -7 32 C-4.58850466 31.47319499 -2.34753563 30.78251188 0 30 C0 32.31 0 34.62 0 37 C-3.70899891 39.3534257 -7.0499068 39.3318354 -11.375 39.375 C-12.66148437 39.40335938 -13.94796875 39.43171875 -15.2734375 39.4609375 C-20.34464277 38.8336815 -23.40702536 36.93729933 -26.64453125 33 C-27.02996094 32.34 -27.41539062 31.68 -27.8125 31 C-28.21082031 30.34 -28.60914063 29.68 -29.01953125 29 C-31.78669668 23.3554235 -31.81341541 16.96956395 -30.0625 11 C-27.91028732 5.77467594 -23.55990464 2.16901518 -19 -1 C-12.81212108 -3.18678439 -5.9671527 -2.44806265 0 0 Z " fill="#E3E6EC" transform="translate(1031,482)"/>
<path d="M0 0 C6.93 0 13.86 0 21 0 C21 1.98 21 3.96 21 6 C16.38 6 11.76 6 7 6 C7 9.3 7 12.6 7 16 C11.29 16 15.58 16 20 16 C20 17.98 20 19.96 20 22 C13.565 22.495 13.565 22.495 7 23 C6.67 26.3 6.34 29.6 6 33 C11.28 33 16.56 33 22 33 C22 34.98 22 36.96 22 39 C14.74 39 7.48 39 0 39 C0 26.13 0 13.26 0 0 Z " fill="#EAECF0" transform="translate(1434,481)"/>
<path d="M0 0 C0 2.31 0 4.62 0 7 C-0.55816406 6.84015625 -1.11632813 6.6803125 -1.69140625 6.515625 C-6.79900693 5.37484109 -12.09749202 5.19042213 -16.9375 7.25 C-21.06032385 10.74815357 -22.7899288 13.81525952 -23.3125 19.25 C-22.91138951 24.06332585 -21.83173762 26.0967941 -19 30 C-15.02996624 32.53641046 -10.59031687 32.46529528 -6 32 C-2.63178728 31.10202887 -2.63178728 31.10202887 0 30 C0.1875 33.375 0.1875 33.375 0 37 C-5.25842164 40.50561442 -12.83253831 39.9476131 -19 39 C-23.64924567 37.06836498 -26.08579264 34.50726459 -28.66796875 30.25 C-31.27224824 23.89586354 -31.4054152 15.8692295 -29.05078125 9.38671875 C-26.11867464 4.47520893 -22.43816339 1.08362817 -17.1875 -1.25 C-10.99053555 -2.70810928 -5.95837072 -2.38334829 0 0 Z " fill="#EDEFF2" transform="translate(1489,482)"/>
<path d="M0 0 C9.24 0 18.48 0 28 0 C28 1.98 28 3.96 28 6 C24.37 6 20.74 6 17 6 C17 17.22 17 28.44 17 40 C14.69 40 12.38 40 10 40 C10 29.11 10 18.22 10 7 C6.7 7 3.4 7 0 7 C0 4.69 0 2.38 0 0 Z " fill="#E5E8EE" transform="translate(1491,481)"/>
<path d="M0 0 C0.33 0 0.66 0 1 0 C1.33 4.62 1.66 9.24 2 14 C2.66 14 3.32 14 4 14 C4.66 11.69 5.32 9.38 6 7 C6.33 7 6.66 7 7 7 C7.0515625 7.66386719 7.103125 8.32773437 7.15625 9.01171875 C7.75965504 14.35072098 7.75965504 14.35072098 10.703125 18.63671875 C12.75771128 19.87966503 14.84101648 20.95054976 17 22 C22.39884393 25.39884393 22.39884393 25.39884393 24 27 C24.25 29.4375 24.25 29.4375 24 32 C20.27198642 34.48534239 17.31947817 34.65747809 13 34 C10.18372346 32.90026553 7.59518807 31.54606949 5 30 C5 32.31 5 34.62 5 37 C4.01 37 3.02 37 2 37 C1.67 37.99 1.34 38.98 1 40 C-1.64 40 -4.28 40 -7 40 C-7 39.67 -7 39.34 -7 39 C-4.69 39 -2.38 39 0 39 C0 26.13 0 13.26 0 0 Z " fill="#183059" transform="translate(1108,481)"/>
<path d="M0 0 C9.24 0 18.48 0 28 0 C28 1.98 28 3.96 28 6 C24.37 6 20.74 6 17 6 C17 16.89 17 27.78 17 39 C15.02 39 13.04 39 11 39 C11 28.11 11 17.22 11 6 C7.37 6 3.74 6 0 6 C0 4.02 0 2.04 0 0 Z " fill="#F4F5F7" transform="translate(1402,481)"/>
<path d="M0 0 C3.3 0.33 6.6 0.66 10 1 C10 1.33 10 1.66 10 2 C7.69 2 5.38 2 3 2 C3 2.56598876 3 3.13197752 3 3.71511745 C3 59.14341164 3 114.57170582 3 170 C2.01 169.67 1.02 169.34 0 169 C0 113.23 0 57.46 0 0 Z " fill="#0C234B" transform="translate(461,310)"/>
<path d="M0 0 C3.63 0 7.26 0 11 0 C11 10.89 11 21.78 11 33 C12.98 33 14.96 33 17 33 C17 22.11 17 11.22 17 0 C20.63 0 24.26 0 28 0 C28 0.33 28 0.66 28 1 C24.7 1 21.4 1 18 1 C18 11.89 18 22.78 18 34 C15.36 34 12.72 34 10 34 C9.67 31.03 9.34 28.06 9 25 C7.02 25.99 7.02 25.99 5 27 C1.25 26.625 1.25 26.625 -2 26 C-1.67386719 25.33097656 -1.34773438 24.66195313 -1.01171875 23.97265625 C0.2294841 20.32572433 0.22951879 17.28412945 0.1875 13.4375 C0.18105469 12.13683594 0.17460938 10.83617187 0.16796875 9.49609375 C0.03588416 6.74689117 -0.32786872 4.62069535 -1 2 C-0.67 1.34 -0.34 0.68 0 0 Z " fill="#31476C" transform="translate(1402,487)"/>
<path d="M0 0 C0.66 0.33 1.32 0.66 2 1 C2.62427746 13.65895954 2.62427746 13.65895954 0.3125 18.625 C-4.35370273 23.41731631 -8.41476552 26.93268008 -15.39453125 27.03515625 C-22.27975371 26.61192668 -26.09988851 24.90011149 -31 20 C-30.625 17.375 -30.625 17.375 -30 15 C-24.45925926 15.62962963 -24.45925926 15.62962963 -22.0625 17.5625 C-18.965957 19.72069664 -16.69190243 19.38192094 -13 19 C-8.76203199 17.61451046 -7.38136522 16.7082497 -5.25 12.75 C-4.41640629 10.24921887 -3.64517062 7.72678868 -2.9375 5.1875 C-2 2 -2 2 0 0 Z " fill="#EAECF1" transform="translate(1400,495)"/>
<path d="M0 0 C2.31 0 4.62 0 7 0 C7 13.2 7 26.4 7 40 C4.69 40 2.38 40 0 40 C0 26.8 0 13.6 0 0 Z " fill="#D6DCE4" transform="translate(1522,481)"/>
<path d="M0 0 C0.33 0 0.66 0 1 0 C1.33 1.65 1.66 3.3 2 5 C2.66 4.01 3.32 3.02 4 2 C4.02902429 5.27081471 4.04680684 8.5415963 4.0625 11.8125 C4.07087891 12.74126953 4.07925781 13.67003906 4.08789062 14.62695312 C4.09272461 15.9659668 4.09272461 15.9659668 4.09765625 17.33203125 C4.10551147 18.56530151 4.10551147 18.56530151 4.11352539 19.82348633 C4 22 4 22 3 25 C2.855625 25.70125 2.71125 26.4025 2.5625 27.125 C2.376875 27.74375 2.19125 28.3625 2 29 C1.34 29.33 0.68 29.66 0 30 C0.06960938 29.26394531 0.13921875 28.52789063 0.2109375 27.76953125 C0.67514563 21.41759183 0.67514563 21.41759183 -2.4375 16.125 C-4.09346765 15.00644424 -4.09346765 15.00644424 -6 14 C-7.15435547 13.34064453 -7.15435547 13.34064453 -8.33203125 12.66796875 C-9.89124288 11.79390343 -11.46235114 10.94057517 -13.046875 10.11328125 C-15 9 -15 9 -17 7 C-16.63318342 4.06546739 -16.13562754 3.13562754 -14 1 C-11.7578125 0.734375 -11.7578125 0.734375 -9.125 0.75 C-8.26132813 0.74484375 -7.39765625 0.7396875 -6.5078125 0.734375 C-3.89526423 1.01109351 -2.2499912 1.6814005 0 3 C0 2.01 0 1.02 0 0 Z " fill="#0E2650" transform="translate(1138,486)"/>
<path d="M0 0 C1.65 0.33 3.3 0.66 5 1 C5.07347656 2.10408203 5.07347656 2.10408203 5.1484375 3.23046875 C5.22320313 4.20628906 5.29796875 5.18210937 5.375 6.1875 C5.44460938 7.15042969 5.51421875 8.11335938 5.5859375 9.10546875 C6.00215853 12.01508938 6.79874096 14.32890774 8 17 C6 19 4 21 2 23 C2 21.02 2 19.04 2 17 C-3.28 17 -8.56 17 -14 17 C-14.09765625 9.28515625 -14.09765625 9.28515625 -14 7 C-13 6 -13 6 -10.05859375 5.90234375 C-8.26615234 5.91974609 -8.26615234 5.91974609 -6.4375 5.9375 C-4.64119141 5.95103516 -4.64119141 5.95103516 -2.80859375 5.96484375 C-1.88175781 5.97644531 -0.95492188 5.98804688 0 6 C0 4.02 0 2.04 0 0 Z " fill="#172E57" transform="translate(1454,497)"/>
<path d="M0 0 C0.33 0 0.66 0 1 0 C1 1.98 1 3.96 1 6 C2.98 5.67 4.96 5.34 7 5 C7.33 5.66 7.66 6.32 8 7 C7.2578125 9.1015625 7.2578125 9.1015625 6.125 11.625 C4.20232974 16.18636944 3.36449552 20.07931054 3 25 C1.5 23.875 1.5 23.875 0 22 C0 20.02 0 18.04 0 16 C-4.62 16 -9.24 16 -14 16 C-14 12.7 -14 9.4 -14 6 C-9.38 6 -4.76 6 0 6 C0 4.02 0 2.04 0 0 Z " fill="#0C2650" transform="translate(1455,481)"/>
<path d="M0 0 C3.36143418 1.12047806 4.57528834 2.49707183 7 5 C12.32975737 7.66487869 18.66409343 5.77863552 24 4 C24 6.31 24 8.62 24 11 C20.29100109 13.3534257 16.9500932 13.3318354 12.625 13.375 C11.33851563 13.40335938 10.05203125 13.43171875 8.7265625 13.4609375 C4.418881 12.92812155 2.30917377 11.76424995 -1 9 C-2.375 5.75 -2.375 5.75 -3 3 C-2.01 2.01 -1.02 1.02 0 0 Z " fill="#EBEEF2" transform="translate(1007,508)"/>
<path d="M0 0 C0.33 0 0.66 0 1 0 C1 12.87 1 25.74 1 39 C2.98 39 4.96 39 7 39 C7 29.76 7 20.52 7 11 C9.70620946 13.70620946 11.60630748 16.18994646 13.6875 19.375 C14.31011719 20.31085938 14.93273438 21.24671875 15.57421875 22.2109375 C17.06706574 25.13119161 17.3105781 26.77701976 17 30 C14.69 30 12.38 30 10 30 C9.93941406 30.63808594 9.87882812 31.27617188 9.81640625 31.93359375 C9.73261719 32.75988281 9.64882812 33.58617187 9.5625 34.4375 C9.48128906 35.26121094 9.40007812 36.08492187 9.31640625 36.93359375 C9 39 9 39 8 40 C5.36 40 2.72 40 0 40 C0 26.8 0 13.6 0 0 Z " fill="#2C4266" transform="translate(1075,481)"/>
<path d="M0 0 C0.66 0 1.32 0 2 0 C2 11.55 2 23.1 2 35 C1.01 35.495 1.01 35.495 0 36 C-0.66 35.67 -1.32 35.34 -2 35 C-3.80410527 28.81499705 -2.92033131 22.16911384 -2.6875 15.8125 C-2.65205078 14.51634766 -2.61660156 13.22019531 -2.58007812 11.88476562 C-2.53689453 10.65048828 -2.49371094 9.41621094 -2.44921875 8.14453125 C-2.41143311 7.01378174 -2.37364746 5.88303223 -2.3347168 4.71801758 C-2 2 -2 2 0 0 Z " fill="#0D2141" transform="translate(1225,481)"/>
<path d="M0 0 C0 2.31 0 4.62 0 7 C-0.556875 6.83757812 -1.11375 6.67515625 -1.6875 6.5078125 C-4.19228372 5.95777553 -6.437481 5.86718744 -9 5.875 C-9.845625 5.87242187 -10.69125 5.86984375 -11.5625 5.8671875 C-13.9824839 5.91398822 -13.9824839 5.91398822 -16.17578125 6.58984375 C-18 7 -18 7 -20.1875 5.6875 C-22 4 -22 4 -23 2 C-14.83496915 -2.2337197 -8.8740185 -3.5496074 0 0 Z " fill="#E9EBF0" transform="translate(1489,482)"/>
<path d="M0 0 C7.25581395 -0.48372093 7.25581395 -0.48372093 10.5 1.625 C12.44405832 4.70309234 12.608676 6.42402849 12 10 C10.5 11.875 10.5 11.875 8 13 C5.27930412 13.23364755 2.74133849 13.13706692 0 13 C0 8.71 0 4.42 0 0 Z " fill="#10254C" transform="translate(1313,487)"/>
<path d="M0 0 C1.65 0 3.3 0 5 0 C5 8.91 5 17.82 5 27 C2.525 26.01 2.525 26.01 0 25 C0 16.75 0 8.5 0 0 Z " fill="#FBFCFC" transform="translate(1169,482)"/>
<path d="M0 0 C1.258125 -0.04125 2.51625 -0.0825 3.8125 -0.125 C4.52019531 -0.14820313 5.22789063 -0.17140625 5.95703125 -0.1953125 C8 0 8 0 11 2 C11.4375 5.4375 11.4375 5.4375 11 9 C9.4375 10.9375 9.4375 10.9375 7 12 C3.25 12.1875 3.25 12.1875 0 12 C0 8.04 0 4.08 0 0 Z " fill="#253458" transform="translate(1343,487)"/>
<path d="M0 0 C1.258125 -0.04125 2.51625 -0.0825 3.8125 -0.125 C4.52019531 -0.14820313 5.22789063 -0.17140625 5.95703125 -0.1953125 C8 0 8 0 11 2 C11.4375 5.4375 11.4375 5.4375 11 9 C9.4375 10.9375 9.4375 10.9375 7 12 C3.25 12.1875 3.25 12.1875 0 12 C0 8.04 0 4.08 0 0 Z " fill="#1D3157" transform="translate(1263,487)"/>
<path d="M0 0 C9 10.66666667 9 10.66666667 9 16 C6.36 16 3.72 16 1 16 C-0.03307771 14.23628182 -1.05112049 12.46374967 -2.0625 10.6875 C-2.63097656 9.70136719 -3.19945312 8.71523438 -3.78515625 7.69921875 C-5 5 -5 5 -4 2 C-1.9375 0.8125 -1.9375 0.8125 0 0 Z " fill="#DEE2E9" transform="translate(1357,505)"/>
<path d="M0 0 C0.33 0 0.66 0 1 0 C1.33 1.65 1.66 3.3 2 5 C2.66 5 3.32 5 4 5 C4.33 3.68 4.66 2.36 5 1 C5 8.59 5 16.18 5 24 C3.35 24 1.7 24 0 24 C0 16.08 0 8.16 0 0 Z " fill="#FCFDFD" transform="translate(1523,496)"/>
<path d="M0 0 C0.66 0.33 1.32 0.66 2 1 C2.08119503 3.24940295 2.13927819 5.49964871 2.1875 7.75 C2.22230469 9.00296875 2.25710938 10.2559375 2.29296875 11.546875 C1.98802939 15.14109357 1.45605371 16.44725126 -1 19 C-2.98 18.34 -4.96 17.68 -7 17 C-6.54625 15.824375 -6.0925 14.64875 -5.625 13.4375 C-4.58519923 10.68910642 -3.68517507 7.96616527 -2.9375 5.125 C-2 2 -2 2 0 0 Z " fill="#F2F3F6" transform="translate(1400,495)"/>
<path d="M0 0 C2.46471186 1.64314124 3.66759151 3.35792013 5.265625 5.84375 C5.78640625 6.6378125 6.3071875 7.431875 6.84375 8.25 C8.015625 10.34375 8.015625 10.34375 8.015625 12.34375 C2.94680263 13.1302914 2.94680263 13.1302914 0.015625 12.34375 C-2.63777991 9.69579356 -4.55371874 6.80964948 -5.984375 3.34375 C-5.654375 2.35375 -5.324375 1.36375 -4.984375 0.34375 C-1.984375 -0.65625 -1.984375 -0.65625 0 0 Z " fill="#EBEDF1" transform="translate(1278.984375,508.65625)"/>
<path d="M0 0 C2.5654594 2.5654594 2.54046087 4.47686668 3 8 C3.33 8 3.66 8 4 8 C4.08119503 10.24940295 4.13927819 12.49964871 4.1875 14.75 C4.22230469 16.00296875 4.25710938 17.2559375 4.29296875 18.546875 C4 22 4 22 1 26 C-0.98 22.7 -2.96 19.4 -5 16 C-3.68 15.34 -2.36 14.68 -1 14 C-0.29603377 11.72046859 -0.29603377 11.72046859 -0.25 9.125 C-0.19328125 8.26132812 -0.1365625 7.39765625 -0.078125 6.5078125 C-0.01057437 4.3394373 0 2.16942714 0 0 Z " fill="#0C2249" transform="translate(1360,486)"/>
<path d="M0 0 C6.93 0 13.86 0 21 0 C21 1.65 21 3.3 21 5 C16.05 5 11.1 5 6 5 C6.33 4.34 6.66 3.68 7 3 C4.03 2.505 4.03 2.505 1 2 C1 4.97 1 7.94 1 11 C0.67 11 0.34 11 0 11 C0 7.37 0 3.74 0 0 Z " fill="#F4F6F8" transform="translate(1434,481)"/>
<path d="M0 0 C0.33 0 0.66 0 1 0 C1.33 2.64 1.66 5.28 2 8 C4.97 8.495 4.97 8.495 8 9 C8 11.31 8 13.62 8 16 C5.08291076 17.98362069 3.87619096 17.9876191 0.25 17.625 C-1.35875 17.315625 -1.35875 17.315625 -3 17 C-2.68289063 16.30519531 -2.36578125 15.61039062 -2.0390625 14.89453125 C-0.90598948 11.73811356 -0.59519989 9.02719833 -0.375 5.6875 C-0.30023437 4.61886719 -0.22546875 3.55023438 -0.1484375 2.44921875 C-0.09945313 1.64097656 -0.05046875 0.83273437 0 0 Z " fill="#0F2953" transform="translate(1403,496)"/>
<path d="M0 0 C4.47233955 2.23616978 6.37684336 4.80294937 9 9 C10.62351109 10.79394446 10.62351109 10.79394446 12 12 C11.67 12.33 11.34 12.66 11 13 C9 13 7 13 5 13 C4.01 13.495 4.01 13.495 3 14 C2.525625 12.865625 2.05125 11.73125 1.5625 10.5625 C0.36377917 7.24259834 0.36377917 7.24259834 -1 6 C-1.125 3.5 -1.125 3.5 -1 1 C-0.67 0.67 -0.34 0.34 0 0 Z M-4 14 C-1.69 14 0.62 14 3 14 C3 14.33 3 14.66 3 15 C0.69 15 -1.62 15 -4 15 C-4 14.67 -4 14.34 -4 14 Z " fill="#0E2652" transform="translate(1363,508)"/>
<path d="M0 0 C0 0.99 0 1.98 0 3 C0.66 3 1.32 3 2 3 C1.63076923 10.26153846 1.63076923 10.26153846 -1.5625 14 C-2.366875 14.66 -3.17125 15.32 -4 16 C-4.66 15.01 -5.32 14.02 -6 13 C-6.99 12.34 -7.98 11.68 -9 11 C-8.01 10.34 -7.02 9.68 -6 9 C-5.65977214 7.00116131 -5.32670903 5.00109278 -5 3 C-2.7 0 -2.7 0 0 0 Z M-8 13 C-6 14 -6 14 -6 14 Z " fill="#E8EBF0" transform="translate(1359,487)"/>
<path d="M0 0 C4.95 0 9.9 0 15 0 C15 1.65 15 3.3 15 5 C8.73 5 2.46 5 -4 5 C-2.68 4.67 -1.36 4.34 0 4 C0 2.68 0 1.36 0 0 Z " fill="#FBFBFC" transform="translate(1441,515)"/>
<path d="M0 0 C1.32 0.66 2.64 1.32 4 2 C4 5.3 4 8.6 4 12 C1.125 12.625 1.125 12.625 -2 13 C-2.66 12.34 -3.32 11.68 -4 11 C-3.828125 8.90625 -3.828125 8.90625 -3.25 6.5 C-3.06953125 5.7059375 -2.8890625 4.911875 -2.703125 4.09375 C-2 2 -2 2 0 0 Z " fill="#EAECF1" transform="translate(1277,485)"/>
<path d="M0 0 C0.33 0 0.66 0 1 0 C1 8.25 1 16.5 1 25 C0.67 25 0.34 25 0 25 C-0.33 22.36 -0.66 19.72 -1 17 C-1.61875 17.185625 -2.2375 17.37125 -2.875 17.5625 C-5 18 -5 18 -7 17 C-5.1668733 11.00067626 -2.92678249 5.55079437 0 0 Z " fill="#17315B" transform="translate(1214,496)"/>
<path d="M0 0 C0.99 0 1.98 0 3 0 C4.30251268 5.86130707 4.52771213 12.02522535 4 18 C3.34 18.66 2.68 19.32 2 20 C1.59952556 22.32275177 1.2602896 24.65739357 1 27 C0.67 27 0.34 27 0 27 C0 18.09 0 9.18 0 0 Z " fill="#07214E" transform="translate(1531,491)"/>
<path d="M0 0 C1.32 0.33 2.64 0.66 4 1 C4 5.29 4 9.58 4 14 C3.01 14.495 3.01 14.495 2 15 C-2.81358741 8.07187241 -2.81358741 8.07187241 -3.5 4.125 C-3 2 -3 2 0 0 Z " fill="#0A1F41" transform="translate(1096,490)"/>
<path d="M0 0 C0.08069658 2.95887459 0.14034665 5.9155659 0.1875 8.875 C0.22520508 10.13763672 0.22520508 10.13763672 0.26367188 11.42578125 C0.27333984 12.23144531 0.28300781 13.03710938 0.29296875 13.8671875 C0.3086792 14.61081543 0.32438965 15.35444336 0.34057617 16.12060547 C0.22818604 16.74080566 0.1157959 17.36100586 0 18 C-0.99 18.66 -1.98 19.32 -3 20 C-3.04898437 19.25234375 -3.09796875 18.5046875 -3.1484375 17.734375 C-3.22320313 16.74953125 -3.29796875 15.7646875 -3.375 14.75 C-3.44460938 13.77546875 -3.51421875 12.8009375 -3.5859375 11.796875 C-3.9875652 9.08399357 -4.74015095 7.3937132 -6 5 C-5.625 2.75 -5.625 2.75 -5 1 C-1.125 0 -1.125 0 0 0 Z " fill="#061F4B" transform="translate(1575,484)"/>
<path d="M0 0 C4.62 0 9.24 0 14 0 C14 2.31 14 4.62 14 7 C9.38 7 4.76 7 0 7 C1.32 6.01 2.64 5.02 4 4 C4 3.34 4 2.68 4 2 C2.68 1.34 1.36 0.68 0 0 Z " fill="#C3CAD6" transform="translate(1236,497)"/>
<path d="M0 0 C4.92127034 -0.16682272 8.50343896 -0.24828052 13 2 C13 4.31 13 6.62 13 9 C8.71 8.34 4.42 7.68 0 7 C0 6.67 0 6.34 0 6 C0.804375 5.87625 1.60875 5.7525 2.4375 5.625 C3.283125 5.41875 4.12875 5.2125 5 5 C5.33 4.34 5.66 3.68 6 3 C3.69 2.67 1.38 2.34 -1 2 C-0.67 1.34 -0.34 0.68 0 0 Z " fill="#D7DCE4" transform="translate(1125,480)"/>
<path d="M0 0 C4.62 0 9.24 0 14 0 C13.01 2.97 12.02 5.94 11 9 C10.67 9 10.34 9 10 9 C10 7.35 10 5.7 10 4 C8.02 4 6.04 4 4 4 C4.33 5.98 4.66 7.96 5 10 C1.8162018 6.40538913 0.98425899 4.92129494 0 0 Z " fill="#0C234C" transform="translate(1219,309)"/>
<path d="M0 0 C2.89932357 2.39509338 3.50168276 4.31245243 4 8 C-1.75 12 -1.75 12 -4 12 C-6.09230769 7.56923077 -6.09230769 7.56923077 -5.625 4.6875 C-5.41875 4.130625 -5.2125 3.57375 -5 3 C-4.34 3.66 -3.68 4.32 -3 5 C-2.01 3.35 -1.02 1.7 0 0 Z " fill="#F0F2F5" transform="translate(1288,297)"/>
<path d="M0 0 C0 2.31 0 4.62 0 7 C-0.99 7.495 -0.99 7.495 -2 8 C-2.66 7.67 -3.32 7.34 -4 7 C-4 6.34 -4 5.68 -4 5 C-5.32 5 -6.64 5 -8 5 C-8.33 5.66 -8.66 6.32 -9 7 C-9 4.69 -9 2.38 -9 0 C-3.375 -1.125 -3.375 -1.125 0 0 Z " fill="#0E244B" transform="translate(1354,489)"/>
<path d="M0 0 C3.1875 0.4375 3.1875 0.4375 5.5625 3.3125 C7.1875 6.4375 7.1875 6.4375 7.1875 8.4375 C5.5375 8.4375 3.8875 8.4375 2.1875 8.4375 C1.8575 9.0975 1.5275 9.7575 1.1875 10.4375 C-0.4625 7.4675 -2.1125 4.4975 -3.8125 1.4375 C-2.8125 0.4375 -2.8125 0.4375 0 0 Z " fill="#E8EAEF" transform="translate(1590.8125,494.5625)"/>
<path d="M0 0 C2.95183101 2.95183101 3.08663988 5.95511947 4 10 C3.01 10.495 3.01 10.495 2 11 C2 10.34 2 9.68 2 9 C1.01 9.33 0.02 9.66 -1 10 C-2.21869929 12.50447516 -2.21869929 12.50447516 -3 15 C-3.66 15 -4.32 15 -5 15 C-4.37321829 11.33827525 -3.35548154 8.1181005 -1.9375 4.6875 C-1.39416016 3.36298828 -1.39416016 3.36298828 -0.83984375 2.01171875 C-0.56269531 1.34785156 -0.28554687 0.68398437 0 0 Z " fill="#1A2F53" transform="translate(1263,254)"/>
<path d="M0 0 C0.99 0.33 1.98 0.66 3 1 C2.34 1.66 1.68 2.32 1 3 C1.66 3 2.32 3 3 3 C3.66 2.34 4.32 1.68 5 1 C5 5.62 5 10.24 5 15 C4.01 15 3.02 15 2 15 C1.89042969 14.39671875 1.78085938 13.7934375 1.66796875 13.171875 C0.49202872 7.06315013 0.49202872 7.06315013 -3 2 C-2.01 1.34 -1.02 0.68 0 0 Z " fill="#152D56" transform="translate(1330,481)"/>
<path d="M0 0 C2.0625 2.3125 2.0625 2.3125 4 5 C3.67 5.99 3.34 6.98 3 8 C0.4375 9.1875 0.4375 9.1875 -2 10 C-3.5625 7.6875 -3.5625 7.6875 -5 5 C-4 2 -4 2 -1.9375 0.8125 C-1.298125 0.544375 -0.65875 0.27625 0 0 Z " fill="#E8EBEF" transform="translate(1357,505)"/>
<path d="M0 0 C0.66 0 1.32 0 2 0 C2 0.66 2 1.32 2 2 C2.66 2 3.32 2 4 2 C4 4.97 4 7.94 4 11 C2.35 10.67 0.7 10.34 -1 10 C-1.02689216 8.52093108 -1.04634621 7.04172517 -1.0625 5.5625 C-1.07410156 4.73878906 -1.08570313 3.91507812 -1.09765625 3.06640625 C-1 1 -1 1 0 0 Z " fill="#0D1F39" transform="translate(1407,494)"/>
<path d="M0 0 C3 1 3 1 5 3 C5.625 5.625 5.625 5.625 6 8 C3.35261084 9.4606285 2.10551666 10 -1 10 C-1.02689216 8.52093108 -1.04634621 7.04172517 -1.0625 5.5625 C-1.07410156 4.73878906 -1.08570313 3.91507812 -1.09765625 3.06640625 C-1 1 -1 1 0 0 Z " fill="#F5F6F7" transform="translate(1116,486)"/>
<path d="M0 0 C2.97 0.495 2.97 0.495 6 1 C6 3.31 6 5.62 6 8 C1.38 7.34 -3.24 6.68 -8 6 C-8 5.67 -8 5.34 -8 5 C-5.36 5 -2.72 5 0 5 C0 3.35 0 1.7 0 0 Z " fill="#D6DBE3" transform="translate(1025,481)"/>
<path d="M0 0 C2.67455183 1.33727591 2.98881385 2.73288323 4.1875 5.4375 C4.55230469 6.24058594 4.91710938 7.04367187 5.29296875 7.87109375 C6 10 6 10 5 12 C4.34 11.67 3.68 11.34 3 11 C3 10.01 3 9.02 3 8 C2.34 8 1.68 8 1 8 C1 13.61 1 19.22 1 25 C0.67 25 0.34 25 0 25 C0 16.75 0 8.5 0 0 Z " fill="#324469" transform="translate(1188,496)"/>
<path d="M0 0 C2.6855594 2.6855594 3.06049974 5.37621328 4 9 C1.69 9.66 -0.62 10.32 -3 11 C-4 10 -4 10 -4.0625 7.4375 C-4.041875 6.633125 -4.02125 5.82875 -4 5 C-3.01 4.67 -2.02 4.34 -1 4 C-0.26676204 1.98491642 -0.26676204 1.98491642 0 0 Z " fill="#1B3057" transform="translate(1194,508)"/>
<path d="M0 0 C1.39431504 2.78863007 1.25660094 4.92078868 1 8 C0.01 8.66 -0.98 9.32 -2 10 C-2.33 7.69 -2.66 5.38 -3 3 C-5.97 2.505 -5.97 2.505 -9 2 C-9 1.34 -9 0.68 -9 0 C-3.375 -1.125 -3.375 -1.125 0 0 Z " fill="#1F3357" transform="translate(1324,489)"/>
<path d="M0 0 C-4.75 5.75 -4.75 5.75 -7 8 C-8.98 7.01 -10.96 6.02 -13 5 C-13 4.34 -13 3.68 -13 3 C-11.40084119 2.30093058 -9.79544955 1.61610532 -8.1875 0.9375 C-7.29417969 0.55464844 -6.40085937 0.17179687 -5.48046875 -0.22265625 C-3 -1 -3 -1 0 0 Z " fill="#263B63" transform="translate(1492,281)"/>
<path d="M0 0 C0.96070434 2.88211302 1.10581883 4.69850044 1.0625 7.6875 C1.05347656 8.49574219 1.04445313 9.30398438 1.03515625 10.13671875 C1.02355469 10.75160156 1.01195312 11.36648438 1 12 C-0.48828125 10.69921875 -0.48828125 10.69921875 -2 9 C-2.1875 5.8125 -2.1875 5.8125 -2 3 C-5.3 3 -8.6 3 -12 3 C-11.67 2.34 -11.34 1.68 -11 1 C-9.00390625 0.5859375 -9.00390625 0.5859375 -6.5625 0.375 C-5.75941406 0.30023438 -4.95632813 0.22546875 -4.12890625 0.1484375 C-2.75505053 0.05264572 -1.3771912 0 0 0 Z " fill="#041B45" transform="translate(1457,494)"/>
<path d="M0 0 C9.9 0 19.8 0 30 0 C30 0.33 30 0.66 30 1 C28.83428467 1.03758423 28.83428467 1.03758423 27.64501953 1.07592773 C24.13816931 1.19166796 20.63160255 1.31449352 17.125 1.4375 C15.90167969 1.47681641 14.67835937 1.51613281 13.41796875 1.55664062 C11.66806641 1.61948242 11.66806641 1.61948242 9.8828125 1.68359375 C8.80402832 1.72025146 7.72524414 1.75690918 6.61376953 1.79467773 C4.01930464 1.83376643 4.01930464 1.83376643 2 3 C0.86649466 5.01669827 0.86649466 5.01669827 0 7 C0 4.69 0 2.38 0 0 Z " fill="#0B214A" transform="translate(1402,250)"/>
<path d="M0 0 C4.39158329 1.4638611 4.87947433 3.97831338 7 8 C6.34 8.66 5.68 9.32 5 10 C5 9.34 5 8.68 5 8 C3.35 8.33 1.7 8.66 0 9 C0 6.03 0 3.06 0 0 Z " fill="#0E2952" transform="translate(1084,497)"/>
<path d="M0 0 C0.33 0 0.66 0 1 0 C1 9.24 1 18.48 1 28 C-0.32 26.35 -1.64 24.7 -3 23 C-2.34 22.34 -1.68 21.68 -1 21 C-0.62995706 18.77341846 -0.62995706 18.77341846 -0.5859375 16.2109375 C-0.54726562 15.26992188 -0.50859375 14.32890625 -0.46875 13.359375 C-0.4378125 12.37453125 -0.406875 11.3896875 -0.375 10.375 C-0.33632812 9.38242187 -0.29765625 8.38984375 -0.2578125 7.3671875 C-0.1633686 4.91164615 -0.07780125 2.4561159 0 0 Z " fill="#1A335A" transform="translate(1602,481)"/>
<path d="M0 0 C0.33 0 0.66 0 1 0 C1 8.25 1 16.5 1 25 C0.67 25 0.34 25 0 25 C-0.33 19.39 -0.66 13.78 -1 8 C-1.66 8 -2.32 8 -3 8 C-1.125 2.25 -1.125 2.25 0 0 Z " fill="#24395F" transform="translate(1214,496)"/>
<path d="M0 0 C0.33 0.99 0.66 1.98 1 3 C-0.2578125 5.19140625 -0.2578125 5.19140625 -2.125 7.5625 C-2.72570312 8.34753906 -3.32640625 9.13257813 -3.9453125 9.94140625 C-6.18361015 12.18395922 -8.00787674 13.04231349 -11 14 C-7.46386286 9.21224044 -3.85516296 4.53548584 0 0 Z " fill="#1C2D57" transform="translate(651,294)"/>
<path d="M0 0 C2 2 2 2 2.1875 5.875 C2.120382 8.71460774 1.90494365 11.28516905 1 14 C0.34 14 -0.32 14 -1 14 C-0.9278125 13.32453125 -0.855625 12.6490625 -0.78125 11.953125 C-0.6884375 11.06109375 -0.595625 10.1690625 -0.5 9.25 C-0.4071875 8.36828125 -0.314375 7.4865625 -0.21875 6.578125 C0.05636313 3.76695165 0.05636313 3.76695165 0 0 Z M-3 14 C-2.34 14.33 -1.68 14.66 -1 15 C-1 16.98 -1 18.96 -1 21 C-2.32 19.35 -3.64 17.7 -5 16 C-4.34 15.34 -3.68 14.68 -3 14 Z " fill="#405479" transform="translate(1360,486)"/>
<path d="M0 0 C0 1.65 0 3.3 0 5 C-0.66 5 -1.32 5 -2 5 C-2.33 5.99 -2.66 6.98 -3 8 C-4.32 5.36 -5.64 2.72 -7 0 C-3.86650268 -1.04449911 -3.01031744 -0.93423645 0 0 Z " fill="#0E2044" transform="translate(1601,495)"/>
<path d="M0 0 C0 0.33 0 0.66 0 1 C-0.78503906 1.08636719 -1.57007813 1.17273438 -2.37890625 1.26171875 C-9.33426621 2.19194481 -13.6694236 3.39632038 -19 8 C-18.78515625 6.17578125 -18.78515625 6.17578125 -18 4 C-12.16446277 -0.42499802 -7.02844787 -1.69203375 0 0 Z " fill="#15264C" transform="translate(1056,479)"/>
<path d="M0 0 C4.51720311 -0.36625971 4.51720311 -0.36625971 6.8125 1.375 C8 3 8 3 8 5 C5.36 5 2.72 5 0 5 C0 3.35 0 1.7 0 0 Z " fill="#DADEE5" transform="translate(1279,516)"/>
<path d="M0 0 C0.763125 0.20625 1.52625 0.4125 2.3125 0.625 C1.6525 1.945 0.9925 3.265 0.3125 4.625 C-1.0075 4.295 -2.3275 3.965 -3.6875 3.625 C-4.3475 4.945 -5.0075 6.265 -5.6875 7.625 C-5.875 4.75 -5.875 4.75 -5.6875 1.625 C-2.6875 -0.375 -2.6875 -0.375 0 0 Z " fill="#F4F5F8" transform="translate(1007.6875,489.375)"/>
<path d="M0 0 C2.3125 0.1875 2.3125 0.1875 5 1 C6.8125 3.5625 6.8125 3.5625 8 6 C7.01 6 6.02 6 5 6 C5 5.34 5 4.68 5 4 C3.35 4.66 1.7 5.32 0 6 C0 4.02 0 2.04 0 0 Z " fill="#0F274F" transform="translate(1265,505)"/>
<path d="M0 0 C0.99 0.33 1.98 0.66 3 1 C4.1875 3.5625 4.1875 3.5625 5 6 C2.03 6 -0.94 6 -4 6 C-2.68 4.02 -1.36 2.04 0 0 Z " fill="#F0F2F4" transform="translate(1220,316)"/>
<path d="M0 0 C1.98 0 3.96 0 6 0 C6 1.98 6 3.96 6 6 C4.35 6 2.7 6 1 6 C0.67 4.02 0.34 2.04 0 0 Z " fill="#0A1C3A" transform="translate(1223,313)"/>
<path d="M0 0 C0.66 0 1.32 0 2 0 C3.98 3.96 5.96 7.92 8 12 C7.01 12 6.02 12 5 12 C4.16180842 10.37750059 3.3295884 8.75191503 2.5 7.125 C2.0359375 6.22007812 1.571875 5.31515625 1.09375 4.3828125 C0 2 0 2 0 0 Z " fill="#11254E" transform="translate(1482,301)"/>
<path d="M0 0 C-6.625 4 -6.625 4 -10 4 C-10 6.97 -10 9.94 -10 13 C-10.33 13 -10.66 13 -11 13 C-11.33 9.7 -11.66 6.4 -12 3 C-10.3789897 2.30314502 -8.75303934 1.61777139 -7.125 0.9375 C-6.22007812 0.55464844 -5.31515625 0.17179688 -4.3828125 -0.22265625 C-2 -1 -2 -1 0 0 Z " fill="#D1D7E1" transform="translate(342,249)"/>
<path d="M0 0 C2.4375 0.375 2.4375 0.375 5 1 C5.33 1.66 5.66 2.32 6 3 C4.10646634 4.89353366 2.15473199 6.4198632 0 8 C0 5.36 0 2.72 0 0 Z " fill="#0A224C" transform="translate(1345,505)"/>
<path d="M0 0 C3.96 0 7.92 0 12 0 C11.67 0.66 11.34 1.32 11 2 C9.00718243 2.25713775 7.01170139 2.50836152 5.0078125 2.65625 C2.69017751 2.91308355 2.69017751 2.91308355 0 5 C0 3.35 0 1.7 0 0 Z " fill="#062151" transform="translate(1135,250)"/>
<path d="M0 0 C0 2.66666667 0 5.33333333 0 8 C-2.03833424 6.7260411 -4.03852126 5.38938077 -6 4 C-6 3.34 -6 2.68 -6 2 C-2.25 0 -2.25 0 0 0 Z " fill="#132B56" transform="translate(1207,282)"/>
<path d="M0 0 C2.97 0.495 2.97 0.495 6 1 C5.36578125 1.17273438 4.7315625 1.34546875 4.078125 1.5234375 C1.61289985 2.93168189 1.61289985 2.93168189 1.171875 6.4765625 C1.01255385 7.85734582 0.87261482 9.2404743 0.75 10.625 C0.67265625 11.33140625 0.5953125 12.0378125 0.515625 12.765625 C0.32718389 14.5087053 0.16141131 16.25420924 0 18 C-0.33 18 -0.66 18 -1 18 C-0.505 9.09 -0.505 9.09 0 0 Z " fill="#B7D7D0" transform="translate(743,243)"/>
<path d="M0 0 C0.33 0 0.66 0 1 0 C1.2475 0.886875 1.495 1.77375 1.75 2.6875 C3.03934768 6.10427135 4.59980129 8.2797748 7 11 C4 11 4 11 1.25 8.875 C-1 6 -1 6 -0.8125 2.6875 C-0.544375 1.800625 -0.27625 0.91375 0 0 Z " fill="#19305B" transform="translate(1144,509)"/>
<path d="M0 0 C3.3 0 6.6 0 10 0 C10 0.99 10 1.98 10 3 C2.25 3.125 2.25 3.125 0 2 C0 1.34 0 0.68 0 0 Z " fill="#182A4C" transform="translate(1119,512)"/>
<path d="M0 0 C0.33 0.99 0.66 1.98 1 3 C1.99 3.33 2.98 3.66 4 4 C3.67 5.65 3.34 7.3 3 9 C2.01 9 1.02 9 0 9 C0 6.03 0 3.06 0 0 Z " fill="#0A1E3F" transform="translate(1190,504)"/>
<path d="M0 0 C1.65 0.33 3.3 0.66 5 1 C4.34 2.98 3.68 4.96 3 7 C1.02 6.01 -0.96 5.02 -3 4 C-2.01 3.67 -1.02 3.34 0 3 C0 2.01 0 1.02 0 0 Z " fill="#1A335B" transform="translate(1032,486)"/>
<path d="M0 0 C0.99 0.33 1.98 0.66 3 1 C0.69 3.97 -1.62 6.94 -4 10 C-4.66 9.01 -5.32 8.02 -6 7 C-4.02 4.69 -2.04 2.38 0 0 Z " fill="#1D335D" transform="translate(703,232)"/>
<path d="M0 0 C0.33 0 0.66 0 1 0 C1.33 4.62 1.66 9.24 2 14 C-0.99491273 9.50763091 -1.19717602 6.32375245 -1 1 C-0.67 0.67 -0.34 0.34 0 0 Z " fill="#152751" transform="translate(1041,496)"/>
<path d="M0 0 C0.33 0 0.66 0 1 0 C1.06058594 0.77085937 1.12117187 1.54171875 1.18359375 2.3359375 C1.26738281 3.33882813 1.35117187 4.34171875 1.4375 5.375 C1.55931641 6.87160156 1.55931641 6.87160156 1.68359375 8.3984375 C1.84965626 10.97927613 1.84965626 10.97927613 3 13 C2.01 13.495 2.01 13.495 1 14 C0.34444881 16.52733235 0.34444881 16.52733235 0 19 C-0.33 19 -0.66 19 -1 19 C-0.67 12.73 -0.34 6.46 0 0 Z " fill="#3C5073" transform="translate(771,448)"/>
<path d="M0 0 C0.66 0.33 1.32 0.66 2 1 C-1.46642155 4.17755309 -5.38898294 5.45964644 -10 6 C-12.25 5.546875 -12.25 5.546875 -14 5 C-13.32453125 4.80664062 -12.6490625 4.61328125 -11.953125 4.4140625 C-10.61507813 4.02347656 -10.61507813 4.02347656 -9.25 3.625 C-8.36828125 3.36976563 -7.4865625 3.11453125 -6.578125 2.8515625 C-4.00576767 2.08115206 -4.00576767 2.08115206 -1.796875 0.8359375 C-1.20390625 0.56007812 -0.6109375 0.28421875 0 0 Z " fill="#C1CAD8" transform="translate(362,240)"/>
<path d="M0 0 C0.99 0.33 1.98 0.66 3 1 C3 1.66 3 2.32 3 3 C4.65 2.34 6.3 1.68 8 1 C8.33 1.99 8.66 2.98 9 4 C6.69 4.66 4.38 5.32 2 6 C0 3 0 3 0 0 Z " fill="#DADEE5" transform="translate(1535,507)"/>
<path d="M0 0 C0.33 0 0.66 0 1 0 C1.22307542 2.2277397 1.42788178 4.45731364 1.625 6.6875 C1.74101563 7.92886719 1.85703125 9.17023438 1.9765625 10.44921875 C1.99953004 13.92880169 1.54051631 15.92484721 0 19 C-0.33 19 -0.66 19 -1 19 C-0.67 12.73 -0.34 6.46 0 0 Z " fill="#5A6B88" transform="translate(777,381)"/>
<path d="M0 0 C0.66 0 1.32 0 2 0 C2.6875 1.8125 2.6875 1.8125 3 4 C1.5625 5.75 1.5625 5.75 0 7 C-0.66 6.34 -1.32 5.68 -2 5 C-1.46428571 1.46428571 -1.46428571 1.46428571 0 0 Z " fill="#0C1E3C" transform="translate(1268,509)"/>
<path d="M0 0 C1.32 0.99 2.64 1.98 4 3 C3.01 3.495 3.01 3.495 2 4 C1.2575 5.2375 1.2575 5.2375 0.5 6.5 C-1 9 -1 9 -3 10 C-2.01 6.7 -1.02 3.4 0 0 Z " fill="#162C55" transform="translate(1246,299)"/>
<path d="M0 0 C5.75 -0.125 5.75 -0.125 8 1 C8 1.66 8 2.32 8 3 C5.36 3 2.72 3 0 3 C0 2.01 0 1.02 0 0 Z " fill="#1B3057" transform="translate(1016,512)"/>
<path d="M0 0 C0.33 0 0.66 0 1 0 C1.22151549 1.79008467 1.42682213 3.58218162 1.625 5.375 C1.74101563 6.37273437 1.85703125 7.37046875 1.9765625 8.3984375 C1.98429687 9.25695312 1.99203125 10.11546875 2 11 C1.34 11.66 0.68 12.32 0 13 C-1.49084832 8.52745503 -1.49084832 4.47254497 0 0 Z " fill="#35496E" transform="translate(1466,495)"/>
<path d="M0 0 C0.66 0.33 1.32 0.66 2 1 C2.1875 4.375 2.1875 4.375 2 8 C1.01 8.66 0.02 9.32 -1 10 C-1.125 2.25 -1.125 2.25 0 0 Z " fill="#0D2A57" transform="translate(1573,494)"/>
<path d="M0 0 C1.98 0 3.96 0 6 0 C6 0.99 6 1.98 6 3 C4.35 3.33 2.7 3.66 1 4 C0.67 2.68 0.34 1.36 0 0 Z " fill="#0E203F" transform="translate(1032,515)"/>
<path d="M0 0 C0.66 0.66 1.32 1.32 2 2 C3.65 1.34 5.3 0.68 7 0 C7.33 0.99 7.66 1.98 8 3 C5.69 3.66 3.38 4.32 1 5 C0.67 3.35 0.34 1.7 0 0 Z " fill="#E2E5EB" transform="translate(1145,510)"/>
<path d="M0 0 C-0.33 2.31 -0.66 4.62 -1 7 C-1.99 6.67 -2.98 6.34 -4 6 C-4.33 4.35 -4.66 2.7 -5 1 C-1.125 0 -1.125 0 0 0 Z " fill="#0E2B56" transform="translate(1074,490)"/>
<path d="M0 0 C0.33 0.66 0.66 1.32 1 2 C-2.3 2.66 -5.6 3.32 -9 4 C-9 3.01 -9 2.02 -9 1 C-4.545 0.505 -4.545 0.505 0 0 Z " fill="#0B2042" transform="translate(1469,288)"/>
<path d="M0 0 C0.33 0.66 0.66 1.32 1 2 C0.00390625 3.9453125 0.00390625 3.9453125 -1.4375 6.125 C-1.91058594 6.84945313 -2.38367188 7.57390625 -2.87109375 8.3203125 C-3.24363281 8.87460937 -3.61617187 9.42890625 -4 10 C-4.66 9.01 -5.32 8.02 -6 7 C-4.02 4.69 -2.04 2.38 0 0 Z " fill="#192C55" transform="translate(678,262)"/>
<path d="M0 0 C4.40114397 0.50298788 6.71195019 2.08772731 10 5 C3.47692308 4.50769231 3.47692308 4.50769231 1.0625 1.9375 C0.711875 1.298125 0.36125 0.65875 0 0 Z " fill="#12254D" transform="translate(441,500)"/>
<path d="M0 0 C0.66 0.33 1.32 0.66 2 1 C0.68 3.64 -0.64 6.28 -2 9 C-2.66 9 -3.32 9 -4 9 C-3.38461538 3.46153846 -3.38461538 3.46153846 -1.4375 1.125 C-0.963125 0.75375 -0.48875 0.3825 0 0 Z " fill="#27365C" transform="translate(1012,489)"/>
<path d="M0 0 C0 0.66 0 1.32 0 2 C-4.47058824 6 -4.47058824 6 -7 6 C-6.75 4.125 -6.75 4.125 -6 2 C-3.85331506 0.61504198 -2.56128588 0 0 0 Z " fill="#05173E" transform="translate(1382,488)"/>
<path d="M0 0 C2.64 0 5.28 0 8 0 C8 1.65 8 3.3 8 5 C6.35 5 4.7 5 3 5 C3.99 3.68 4.98 2.36 6 1 C4.02 1 2.04 1 0 1 C0 0.67 0 0.34 0 0 Z " fill="#FBFAFC" transform="translate(1017,481)"/>
<path d="M0 0 C0.66 0 1.32 0 2 0 C2.33 2.31 2.66 4.62 3 7 C1.35 6.67 -0.3 6.34 -2 6 C-1.34 4.02 -0.68 2.04 0 0 Z " fill="#14284C" transform="translate(1273,283)"/>
<path d="M0 0 C0.66 0.99 1.32 1.98 2 3 C0.35 4.65 -1.3 6.3 -3 8 C-3.66 7.34 -4.32 6.68 -5 6 C-3.35 4.02 -1.7 2.04 0 0 Z " fill="#22365E" transform="translate(661,282)"/>
<path d="M0 0 C1.32 0 2.64 0 4 0 C4 1.65 4 3.3 4 5 C2.68 5 1.36 5 0 5 C0 3.35 0 1.7 0 0 Z " fill="#0E2549" transform="translate(1223,516)"/>
<path d="M0 0 C1.75 1.3125 1.75 1.3125 3 3 C3 3.66 3 4.32 3 5 C1.35 5 -0.3 5 -2 5 C-2 4.01 -2 3.02 -2 2 C-2.66 1.67 -3.32 1.34 -4 1 C-2.1875 0.3125 -2.1875 0.3125 0 0 Z " fill="#162E5C" transform="translate(1034,510)"/>
<path d="M0 0 C1.65 0 3.3 0 5 0 C5 1.65 5 3.3 5 5 C4.01 5.495 4.01 5.495 3 6 C2.01 4.02 1.02 2.04 0 0 Z " fill="#0E2856" transform="translate(1095,499)"/>
<path d="M0 0 C0.33 0 0.66 0 1 0 C1.33 3.3 1.66 6.6 2 10 C0.68 9.34 -0.64 8.68 -2 8 C-1.34 5.36 -0.68 2.72 0 0 Z " fill="#082451" transform="translate(1333,491)"/>
<path d="M0 0 C0.66 0.99 1.32 1.98 2 3 C1.0409375 3.433125 1.0409375 3.433125 0.0625 3.875 C-2.15206079 4.82823451 -2.15206079 4.82823451 -3 7 C-3.33 6.01 -3.66 5.02 -4 4 C-2.68 2.68 -1.36 1.36 0 0 Z " fill="#172D56" transform="translate(1046,488)"/>
<path d="M0 0 C0.66 0.33 1.32 0.66 2 1 C1.34 2.32 0.68 3.64 0 5 C-1.98 5 -3.96 5 -6 5 C-4.06745228 2.9754262 -2.36841312 1.57894208 0 0 Z " fill="#21365E" transform="translate(757,485)"/>
<path d="M0 0 C0.66 0.99 1.32 1.98 2 3 C0.625 5 0.625 5 -1 7 C-1.66 7 -2.32 7 -3 7 C-3.33 7.66 -3.66 8.32 -4 9 C-4 5.00095031 -2.27413033 3.19799578 0 0 Z " fill="#152953" transform="translate(1215,272)"/>
<path d="M0 0 C0.66 0.33 1.32 0.66 2 1 C-0.22732451 4.34098676 -1.24862913 4.90203779 -5 6 C-5.99 5.67 -6.98 5.34 -8 5 C-6.71475739 4.13619741 -5.42157581 3.28419631 -4.125 2.4375 C-3.04605469 1.72400391 -3.04605469 1.72400391 -1.9453125 0.99609375 C-1.30335938 0.66738281 -0.66140625 0.33867188 0 0 Z " fill="#20355F" transform="translate(632,558)"/>
<path d="M0 0 C2.475 0.495 2.475 0.495 5 1 C4.67 2.32 4.34 3.64 4 5 C2.68 4.67 1.36 4.34 0 4 C0 2.68 0 1.36 0 0 Z " fill="#0C1B33" transform="translate(1262,263)"/>
<path d="M0 0 C-0.33 1.32 -0.66 2.64 -1 4 C-2.98 4 -4.96 4 -7 4 C-2.25 0 -2.25 0 0 0 Z " fill="#1C3259" transform="translate(598,579)"/>
<path d="M0 0 C2 3 2 3 1.625 5.6875 C1.41875 6.450625 1.2125 7.21375 1 8 C0.01 8 -0.98 8 -2 8 C-1.34 5.36 -0.68 2.72 0 0 Z " fill="#223961" transform="translate(1571,505)"/>
<path d="M0 0 C3.35595828 0.59927826 5.37801226 1.84622436 8 4 C5.69 3.67 3.38 3.34 1 3 C0.67 2.01 0.34 1.02 0 0 Z " fill="#122550" transform="translate(433,495)"/>
<path d="M0 0 C0.66 0.66 1.32 1.32 2 2 C1.625 5.625 1.625 5.625 1 9 C-1.14809171 5.77786243 -1.29386153 4.72224599 -1 1 C-0.67 0.67 -0.34 0.34 0 0 Z " fill="#00284E" transform="translate(871,401)"/>
<path d="M0 0 C0.66 0 1.32 0 2 0 C2.33 2.31 2.66 4.62 3 7 C1.68 6.67 0.36 6.34 -1 6 C-0.67 4.02 -0.34 2.04 0 0 Z " fill="#003547" transform="translate(1023,365)"/>
<path d="M0 0 C0.33 0 0.66 0 1 0 C2.35384615 6.4 2.35384615 6.4 0.5625 9.4375 C0.046875 9.953125 -0.46875 10.46875 -1 11 C-1.125 3.375 -1.125 3.375 0 0 Z " fill="#4F5F7F" transform="translate(785,304)"/>
<path d="M0 0 C0.33 0.66 0.66 1.32 1 2 C-0.1875 4.5625 -0.1875 4.5625 -2 7 C-3.32 7.33 -4.64 7.66 -6 8 C-4.02 5.36 -2.04 2.72 0 0 Z " fill="#1B2F58" transform="translate(668,274)"/>
</svg>
